<?xml version="1.0"?>
<svg width="250mm" height="200mm" viewBox="0 0   4100    1500"
     xmlns="http://www.w3.org/2000/svg"
     xmlns:xlink="http://www.w3.org/1999/xlink"
     xmlns:ev="http://www.w3.org/2001/xml-events">
<g font-family="Verdana" font-size="8" >
  <line x1="  3100" y1="   510" x2="  1000" y2="    30" style = "stroke:silver  ;"/>
  <line x1="  3100" y1="   550" x2="  2400" y2="    30" style = "stroke:silver  ;"/>
  <line x1="  3100" y1="   590" x2="  2400" y2="    70" style = "stroke:silver  ;"/>
  <line x1="  3100" y1="   630" x2="  2400" y2="   110" style = "stroke:silver  ;"/>
  <line x1="  3100" y1="   670" x2="  2400" y2="   150" style = "stroke:silver  ;"/>
  <line x1="  3100" y1="   710" x2="  2400" y2="   190" style = "stroke:silver  ;"/>
  <line x1="  3100" y1="   750" x2="  2400" y2="   230" style = "stroke:silver  ;"/>
  <line x1="  3100" y1="   790" x2="  2400" y2="   270" style = "stroke:silver  ;"/>
  <line x1="  3100" y1="   830" x2="  2400" y2="   310" style = "stroke:silver  ;"/>
  <line x1="  3100" y1="   870" x2="  2400" y2="   350" style = "stroke:silver  ;"/>
  <line x1="  3100" y1="   910" x2="  2400" y2="   390" style = "stroke:silver  ;"/>
  <rect x="   200" y="  1020" width="   200" height="    20" style = "fill:snow; stroke: Black;"/>     1
  <text x="   202" y="  1033">OutdoorAir:NodeList</text>
  <rect x="  2600" y="   500" width="   200" height="    20" style = "fill:wheat; stroke: Black;"/>     7
  <text x="  2602" y="   513">PLANT LOOP 1 DEMAND SPLITTER</text>
  <rect x="  3400" y="   940" width="   200" height="    20" style = "fill:wheat; stroke: Black;"/>     8
  <text x="  3402" y="   953">PLANT LOOP 1 DEMAND MIXER</text>
  <rect x="   600" y="   460" width="   200" height="    20" style = "fill:wheat; stroke: Black;"/>     9
  <text x="   602" y="   473">PLANT LOOP 1 SUPPLY SPLITTER</text>
  <rect x="  1400" y="   500" width="   200" height="    20" style = "fill:wheat; stroke: Black;"/>    10
  <text x="  1402" y="   513">PLANT LOOP 1 SUPPLY MIXER</text>
  <rect x="  2650" y="   220" width="   200" height="    20" style = "fill:chartreuse; stroke: Black;"/>    11
  <text x="  2652" y="   233">THERMAL ZONE 1</text>
  <rect x="  1600" y="    20" width="   200" height="    20" style = "fill:wheat; stroke: Black;"/>    21
  <text x="  1602" y="    33">AIR LOOP HVAC ZONE SPLITTER 1</text>
  <rect x="  1950" y="    20" width="   200" height="    20" style = "fill:wheat; stroke: Black;"/>    22
  <text  x="  1952" y="    28">AIR TERMINAL SINGLE DUCT VAV REHEAT
  <tspan x="  1952" y="    36">2</tspan></text>
  <rect x="  3000" y="   500" width="   200" height="    20" style = "fill:salmon; stroke: Black;"/>    23
  <text x="  3002" y="   513">COIL HEATING WATER 1</text>
  <rect x="   900" y="    20" width="   200" height="    20" style = "fill:salmon; stroke: Black;"/>    24
  <text x="   902" y="    33">COIL HEATING WATER 1</text>
  <rect x="  3000" y="   540" width="   200" height="    20" style = "fill:salmon; stroke: Black;"/>    25
  <text x="  3002" y="   553">COIL HEATING WATER 3</text>
  <rect x="  2300" y="    20" width="   200" height="    20" style = "fill:salmon; stroke: Black;"/>    26
  <text x="  2302" y="    33">COIL HEATING WATER 3</text>
  <rect x="  3000" y="   580" width="   200" height="    20" style = "fill:salmon; stroke: Black;"/>    27
  <text x="  3002" y="   593">COIL HEATING WATER 4</text>
  <rect x="  2300" y="    60" width="   200" height="    20" style = "fill:salmon; stroke: Black;"/>    28
  <text x="  2302" y="    73">COIL HEATING WATER 4</text>
  <rect x="  3000" y="   620" width="   200" height="    20" style = "fill:salmon; stroke: Black;"/>    29
  <text x="  3002" y="   633">COIL HEATING WATER 5</text>
  <rect x="  2300" y="   100" width="   200" height="    20" style = "fill:salmon; stroke: Black;"/>    30
  <text x="  2302" y="   113">COIL HEATING WATER 5</text>
  <rect x="  3000" y="   660" width="   200" height="    20" style = "fill:salmon; stroke: Black;"/>    31
  <text x="  3002" y="   673">COIL HEATING WATER 6</text>
  <rect x="  2300" y="   140" width="   200" height="    20" style = "fill:salmon; stroke: Black;"/>    32
  <text x="  2302" y="   153">COIL HEATING WATER 6</text>
  <rect x="  3000" y="   700" width="   200" height="    20" style = "fill:salmon; stroke: Black;"/>    33
  <text x="  3002" y="   713">COIL HEATING WATER 7</text>
  <rect x="  2300" y="   180" width="   200" height="    20" style = "fill:salmon; stroke: Black;"/>    34
  <text x="  2302" y="   193">COIL HEATING WATER 7</text>
  <rect x="  3000" y="   740" width="   200" height="    20" style = "fill:salmon; stroke: Black;"/>    35
  <text x="  3002" y="   753">COIL HEATING WATER 8</text>
  <rect x="  2300" y="   220" width="   200" height="    20" style = "fill:salmon; stroke: Black;"/>    36
  <text x="  2302" y="   233">COIL HEATING WATER 8</text>
  <rect x="  3000" y="   780" width="   200" height="    20" style = "fill:salmon; stroke: Black;"/>    37
  <text x="  3002" y="   793">COIL HEATING WATER 9</text>
  <rect x="  2300" y="   260" width="   200" height="    20" style = "fill:salmon; stroke: Black;"/>    38
  <text x="  2302" y="   273">COIL HEATING WATER 9</text>
  <rect x="  3000" y="   820" width="   200" height="    20" style = "fill:salmon; stroke: Black;"/>    39
  <text x="  3002" y="   833">COIL HEATING WATER 10</text>
  <rect x="  2300" y="   300" width="   200" height="    20" style = "fill:salmon; stroke: Black;"/>    40
  <text x="  2302" y="   313">COIL HEATING WATER 10</text>
  <rect x="  3000" y="   860" width="   200" height="    20" style = "fill:salmon; stroke: Black;"/>    41
  <text x="  3002" y="   873">COIL HEATING WATER 11</text>
  <rect x="  2300" y="   340" width="   200" height="    20" style = "fill:salmon; stroke: Black;"/>    42
  <text x="  2302" y="   353">COIL HEATING WATER 11</text>
  <rect x="  3000" y="   900" width="   200" height="    20" style = "fill:salmon; stroke: Black;"/>    43
  <text x="  3002" y="   913">COIL HEATING WATER 12</text>
  <rect x="  2300" y="   380" width="   200" height="    20" style = "fill:salmon; stroke: Black;"/>    44
  <text x="  2302" y="   393">COIL HEATING WATER 12</text>
  <rect x="  1950" y="    60" width="   200" height="    20" style = "fill:wheat; stroke: Black;"/>    45
  <text  x="  1952" y="    68">AIR TERMINAL SINGLE DUCT VAV REHEAT
  <tspan x="  1952" y="    76">3</tspan></text>
  <rect x="  1950" y="   100" width="   200" height="    20" style = "fill:wheat; stroke: Black;"/>    46
  <text  x="  1952" y="   108">AIR TERMINAL SINGLE DUCT VAV REHEAT
  <tspan x="  1952" y="   116">4</tspan></text>
  <rect x="  1950" y="   140" width="   200" height="    20" style = "fill:wheat; stroke: Black;"/>    47
  <text  x="  1952" y="   148">AIR TERMINAL SINGLE DUCT VAV REHEAT
  <tspan x="  1952" y="   156">5</tspan></text>
  <rect x="  1950" y="   180" width="   200" height="    20" style = "fill:wheat; stroke: Black;"/>    48
  <text  x="  1952" y="   188">AIR TERMINAL SINGLE DUCT VAV REHEAT
  <tspan x="  1952" y="   196">6</tspan></text>
  <rect x="  1950" y="   220" width="   200" height="    20" style = "fill:wheat; stroke: Black;"/>    49
  <text  x="  1952" y="   228">AIR TERMINAL SINGLE DUCT VAV REHEAT
  <tspan x="  1952" y="   236">7</tspan></text>
  <rect x="  1950" y="   260" width="   200" height="    20" style = "fill:wheat; stroke: Black;"/>    50
  <text  x="  1952" y="   268">AIR TERMINAL SINGLE DUCT VAV REHEAT
  <tspan x="  1952" y="   276">8</tspan></text>
  <rect x="  1950" y="   300" width="   200" height="    20" style = "fill:wheat; stroke: Black;"/>    51
  <text  x="  1952" y="   308">AIR TERMINAL SINGLE DUCT VAV REHEAT
  <tspan x="  1952" y="   316">9</tspan></text>
  <rect x="  1950" y="   340" width="   200" height="    20" style = "fill:wheat; stroke: Black;"/>    52
  <text  x="  1952" y="   348">AIR TERMINAL SINGLE DUCT VAV REHEAT
  <tspan x="  1952" y="   356">10</tspan></text>
  <rect x="  1950" y="   380" width="   200" height="    20" style = "fill:wheat; stroke: Black;"/>    53
  <text  x="  1952" y="   388">AIR TERMINAL SINGLE DUCT VAV REHEAT
  <tspan x="  1952" y="   396">11</tspan></text>
  <rect x="  3000" y="   380" width="   200" height="    20" style = "fill:wheat; stroke: Black;"/>    54
  <text x="  3002" y="   393">AIR LOOP HVAC ZONE MIXER 1</text>
  <rect x="   200" y="    20" width="   200" height="    20" style = "fill:lawngreen; stroke: Black;"/>    55
  <text  x="   202" y="    28">OUTDOORAIR:MIXER
  <tspan x="   202" y="    36">{06191289-9C60-4115-A1B1-96296CD25059}</tspan></text>
  <rect x="   550" y="    20" width="   200" height="    20" style = "fill:skyblue; stroke: Black;"/>    58
  <text x="   552" y="    33">COIL COOLING DX TWO SPEED 1</text>
  <rect x="  1250" y="    20" width="   200" height="    20" style = "fill:silver; stroke: Black;"/>    59
  <text x="  1252" y="    33">FAN VARIABLE VOLUME 1</text>
  <rect x="  1000" y="   500" width="   200" height="    20" style = "fill:wheat; stroke: Black;"/>    60
  <text x="  1002" y="   513">PIPE ADIABATIC 1</text>
  <rect x="  1800" y="   500" width="   200" height="    20" style = "fill:wheat; stroke: Black;"/>    61
  <text x="  1802" y="   513">PIPE ADIABATIC 2</text>
  <rect x="  2200" y="   500" width="   200" height="    20" style = "fill:wheat; stroke: Black;"/>    62
  <text x="  2202" y="   513">PLANT LOOP 1 DEMAND INLET PIPE</text>
  <rect x="  3000" y="   940" width="   200" height="    20" style = "fill:wheat; stroke: Black;"/>    63
  <text x="  3002" y="   953">PLANT LOOP 1 DEMAND BYPASS PIPE</text>
  <rect x="  3800" y="   940" width="   200" height="    20" style = "fill:wheat; stroke: Black;"/>    64
  <text x="  3802" y="   953">PLANT LOOP 1 DEMAND OUTLET PIPE</text>
  <rect x="  1000" y="   460" width="   200" height="    20" style = "fill:indianred; stroke: Black;"/>    65
  <text x="  1002" y="   473">BOILER HOT WATER 1</text>
  <rect x="   200" y="   460" width="   200" height="    20" style = "fill:springgreen; stroke: Black;"/>    66
  <text x="   202" y="   473">PUMP VARIABLE SPEED 1</text>
  <rect x="  2650" y="    20" width="   200" height="    20" style = "fill:chartreuse; stroke: Black;"/>    67
  <text x="  2652" y="    33">THERMAL ZONE 3</text>
  <rect x="  2650" y="   300" width="   200" height="    20" style = "fill:chartreuse; stroke: Black;"/>    68
  <text x="  2652" y="   313">THERMAL ZONE 4</text>
  <rect x="  2650" y="   180" width="   200" height="    20" style = "fill:chartreuse; stroke: Black;"/>    69
  <text x="  2652" y="   193">THERMAL ZONE 8</text>
  <rect x="  2650" y="   380" width="   200" height="    20" style = "fill:chartreuse; stroke: Black;"/>    70
  <text x="  2652" y="   393">THERMAL ZONE 5</text>
  <rect x="  2650" y="   340" width="   200" height="    20" style = "fill:chartreuse; stroke: Black;"/>    71
  <text x="  2652" y="   353">THERMAL ZONE 9</text>
  <rect x="  2650" y="   100" width="   200" height="    20" style = "fill:chartreuse; stroke: Black;"/>    72
  <text x="  2652" y="   113">THERMAL ZONE 2</text>
  <rect x="  2650" y="   260" width="   200" height="    20" style = "fill:chartreuse; stroke: Black;"/>    73
  <text x="  2652" y="   273">THERMAL ZONE 7</text>
  <rect x="  2650" y="   140" width="   200" height="    20" style = "fill:chartreuse; stroke: Black;"/>    74
  <text x="  2652" y="   153">THERMAL ZONE 6</text>
  <rect x="  2650" y="    60" width="   200" height="    20" style = "fill:chartreuse; stroke: Black;"/>    75
  <text x="  2652" y="    73">THERMAL ZONE 10</text>
  <line x1="  2800" y1="   510" x2="  3000" y2="   510" style = "stroke: Black;"/>
  <line x1="  2800" y1="   510" x2="  3000" y2="   550" style = "stroke: Black;"/>
  <line x1="  2800" y1="   510" x2="  3000" y2="   590" style = "stroke: Black;"/>
  <line x1="  2800" y1="   510" x2="  3000" y2="   630" style = "stroke: Black;"/>
  <line x1="  2800" y1="   510" x2="  3000" y2="   670" style = "stroke: Black;"/>
  <line x1="  2800" y1="   510" x2="  3000" y2="   710" style = "stroke: Black;"/>
  <line x1="  2800" y1="   510" x2="  3000" y2="   750" style = "stroke: Black;"/>
  <line x1="  2800" y1="   510" x2="  3000" y2="   790" style = "stroke: Black;"/>
  <line x1="  2800" y1="   510" x2="  3000" y2="   830" style = "stroke: Black;"/>
  <line x1="  2800" y1="   510" x2="  3000" y2="   870" style = "stroke: Black;"/>
  <line x1="  2800" y1="   510" x2="  3000" y2="   910" style = "stroke: Black;"/>
  <line x1="  2800" y1="   510" x2="  3000" y2="   950" style = "stroke: Black;"/>
  <line x1="  3600" y1="   950" x2="  3800" y2="   950" style = "stroke: Black;"/>
  <line x1="   800" y1="   470" x2="  1000" y2="   470" style = "stroke: Black;"/>
  <line x1="   800" y1="   470" x2="  1000" y2="   510" style = "stroke: Black;"/>
  <line x1="  1600" y1="   510" x2="  1800" y2="   510" style = "stroke: Black;"/>
  <line x1="  1800" y1="    30" x2="  1950" y2="    30" style = "stroke: Black;"/>
  <line x1="  1800" y1="    30" x2="  1950" y2="    70" style = "stroke: Black;"/>
  <line x1="  1800" y1="    30" x2="  1950" y2="   110" style = "stroke: Black;"/>
  <line x1="  1800" y1="    30" x2="  1950" y2="   150" style = "stroke: Black;"/>
  <line x1="  1800" y1="    30" x2="  1950" y2="   190" style = "stroke: Black;"/>
  <line x1="  1800" y1="    30" x2="  1950" y2="   230" style = "stroke: Black;"/>
  <line x1="  1800" y1="    30" x2="  1950" y2="   270" style = "stroke: Black;"/>
  <line x1="  1800" y1="    30" x2="  1950" y2="   310" style = "stroke: Black;"/>
  <line x1="  1800" y1="    30" x2="  1950" y2="   350" style = "stroke: Black;"/>
  <line x1="  1800" y1="    30" x2="  1950" y2="   390" style = "stroke: Black;"/>
  <line x1="  2150" y1="    30" x2="  2300" y2="    30" style = "stroke: Black;"/>
  <line x1="  3200" y1="   510" x2="  3400" y2="   950" style = "stroke: Black;"/>
  <line x1="  1100" y1="    30" x2="  1250" y2="    30" style = "stroke: Black;"/>
  <line x1="  3200" y1="   550" x2="  3400" y2="   950" style = "stroke: Black;"/>
  <line x1="  2500" y1="    30" x2="  2650" y2="    30" style = "stroke: Black;"/>
  <line x1="  3200" y1="   590" x2="  3400" y2="   950" style = "stroke: Black;"/>
  <line x1="  2500" y1="    70" x2="  2650" y2="    70" style = "stroke: Black;"/>
  <line x1="  3200" y1="   630" x2="  3400" y2="   950" style = "stroke: Black;"/>
  <line x1="  2500" y1="   110" x2="  2650" y2="   110" style = "stroke: Black;"/>
  <line x1="  3200" y1="   670" x2="  3400" y2="   950" style = "stroke: Black;"/>
  <line x1="  2500" y1="   150" x2="  2650" y2="   150" style = "stroke: Black;"/>
  <line x1="  3200" y1="   710" x2="  3400" y2="   950" style = "stroke: Black;"/>
  <line x1="  2500" y1="   190" x2="  2650" y2="   190" style = "stroke: Black;"/>
  <line x1="  3200" y1="   750" x2="  3400" y2="   950" style = "stroke: Black;"/>
  <line x1="  2500" y1="   230" x2="  2650" y2="   230" style = "stroke: Black;"/>
  <line x1="  3200" y1="   790" x2="  3400" y2="   950" style = "stroke: Black;"/>
  <line x1="  2500" y1="   270" x2="  2650" y2="   270" style = "stroke: Black;"/>
  <line x1="  3200" y1="   830" x2="  3400" y2="   950" style = "stroke: Black;"/>
  <line x1="  2500" y1="   310" x2="  2650" y2="   310" style = "stroke: Black;"/>
  <line x1="  3200" y1="   870" x2="  3400" y2="   950" style = "stroke: Black;"/>
  <line x1="  2500" y1="   350" x2="  2650" y2="   350" style = "stroke: Black;"/>
  <line x1="  3200" y1="   910" x2="  3400" y2="   950" style = "stroke: Black;"/>
  <line x1="  2500" y1="   390" x2="  2650" y2="   390" style = "stroke: Black;"/>
  <line x1="  2150" y1="    70" x2="  2300" y2="    70" style = "stroke: Black;"/>
  <line x1="  2150" y1="   110" x2="  2300" y2="   110" style = "stroke: Black;"/>
  <line x1="  2150" y1="   150" x2="  2300" y2="   150" style = "stroke: Black;"/>
  <line x1="  2150" y1="   190" x2="  2300" y2="   190" style = "stroke: Black;"/>
  <line x1="  2150" y1="   230" x2="  2300" y2="   230" style = "stroke: Black;"/>
  <line x1="  2150" y1="   270" x2="  2300" y2="   270" style = "stroke: Black;"/>
  <line x1="  2150" y1="   310" x2="  2300" y2="   310" style = "stroke: Black;"/>
  <line x1="  2150" y1="   350" x2="  2300" y2="   350" style = "stroke: Black;"/>
  <line x1="  2150" y1="   390" x2="  2300" y2="   390" style = "stroke: Black;"/>
  <line x1="   400" y1="    30" x2="   550" y2="    30" style = "stroke: Black;"/>
  <line x1="   750" y1="    30" x2="   900" y2="    30" style = "stroke: Black;"/>
  <line x1="  1450" y1="    30" x2="  1600" y2="    30" style = "stroke: Black;"/>
  <line x1="  1200" y1="   510" x2="  1400" y2="   510" style = "stroke: Black;"/>
  <line x1="  2000" y1="   510" x2="  2200" y2="   510" style = "stroke: Black;"/>
  <line x1="  2400" y1="   510" x2="  2600" y2="   510" style = "stroke: Black;"/>
  <line x1="  3200" y1="   950" x2="  3400" y2="   950" style = "stroke: Black;"/>
  <line x1="  1200" y1="   470" x2="  1400" y2="   510" style = "stroke: Black;"/>
  <line x1="   400" y1="   470" x2="   600" y2="   470" style = "stroke: Black;"/>
  <line x1="  2850" y1="   230" x2="  3000" y2="   390" style = "stroke: Black;"/>
  <line x1="  2850" y1="    30" x2="  3000" y2="   390" style = "stroke: Black;"/>
  <line x1="  2850" y1="   310" x2="  3000" y2="   390" style = "stroke: Black;"/>
  <line x1="  2850" y1="   190" x2="  3000" y2="   390" style = "stroke: Black;"/>
  <line x1="  2850" y1="   390" x2="  3000" y2="   390" style = "stroke: Black;"/>
  <line x1="  2850" y1="   350" x2="  3000" y2="   390" style = "stroke: Black;"/>
  <line x1="  2850" y1="   110" x2="  3000" y2="   390" style = "stroke: Black;"/>
  <line x1="  2850" y1="   270" x2="  3000" y2="   390" style = "stroke: Black;"/>
  <line x1="  2850" y1="   150" x2="  3000" y2="   390" style = "stroke: Black;"/>
  <line x1="  2850" y1="    70" x2="  3000" y2="   390" style = "stroke: Black;"/>
  <line x1="   200" y1="    30" x2="   175" y2="    30" style = "stroke: Black;"/>
  <line x1="   175" y1="    30" x2="   175" y2="     0" style = "stroke: Black;"/>
  <line x1="   175" y1="     0" x2="  3225" y2="     0" style = "stroke: Black;"/>
  <line x1="  3225" y1="     0" x2="  3225" y2="   390" style = "stroke: Black;"/>
  <line x1="  3225" y1="   390" x2="  3200" y2="   390" style = "stroke: Black;"/>
  <line x1="   200" y1="   470" x2="   175" y2="   470" style = "stroke: Black;"/>
  <line x1="   175" y1="   470" x2="   175" y2="   440" style = "stroke: Black;"/>
  <line x1="   175" y1="   440" x2="  4025" y2="   440" style = "stroke: Black;"/>
  <line x1="  4025" y1="   440" x2="  4025" y2="   950" style = "stroke: Black;"/>
  <line x1="  4025" y1="   950" x2="  4000" y2="   950" style = "stroke: Black;"/>
  <text x="   200" y="  1080">Unused Non-Parent Objects:</text>
  <text x="   220" y="  1100">SETPOINT MANAGER SCHEDULED 1</text>
  <text x="   220" y="  1120">SETPOINT MANAGER SCHEDULED 2</text>
  <text x="   220" y="  1140">SETPOINT MANAGER MIXED AIR 3</text>
  <text x="   220" y="  1160">SETPOINT MANAGER MIXED AIR 2</text>
  <text x="   220" y="  1180">SETPOINT MANAGER MIXED AIR 1</text>
  <text x="   220" y="  1200">CONTROLLER WATER COIL 1</text>
  <text x="   220" y="  1220">CONTROLLER OUTDOOR AIR 1</text>
  <text x="   200" y="  1260">
The following are not supported: objects related to controls, AirTerminal:SingleDuct:Uncontrolled, or ZoneHVAC:IdealLoadsAirSystem</text>
</g>
</svg>
