<?xml version="1.0"?>
<svg width="250mm" height="200mm" viewBox="0 0   2500    2600"
     xmlns="http://www.w3.org/2000/svg"
     xmlns:xlink="http://www.w3.org/1999/xlink"
     xmlns:ev="http://www.w3.org/2001/xml-events">
<g font-family="Verdana" font-size="8" >
  <line x1="   300" y1="   430" x2="   800" y2="   270" style = "stroke:silver  ;"/>
  <line x1="   300" y1="   510" x2="   550" y2="   590" style = "stroke:silver  ;"/>
  <line x1="   300" y1="   670" x2="   550" y2="   750" style = "stroke:silver  ;"/>
  <line x1="   300" y1="   830" x2="   550" y2="   910" style = "stroke:silver  ;"/>
  <line x1="   300" y1="   990" x2="   550" y2="  1070" style = "stroke:silver  ;"/>
  <line x1="   300" y1="  1150" x2="   550" y2="  1230" style = "stroke:silver  ;"/>
  <line x1="   300" y1="  1310" x2="   550" y2="  1390" style = "stroke:silver  ;"/>
  <line x1="   300" y1="  1470" x2="   550" y2="   350" style = "stroke:silver  ;"/>
  <line x1="   300" y1="  1550" x2="   550" y2="  1630" style = "stroke:silver  ;"/>
  <line x1="   300" y1="  1710" x2="   550" y2="  1790" style = "stroke:silver  ;"/>
  <line x1="   300" y1="  1870" x2="   550" y2="  1950" style = "stroke:silver  ;"/>
  <line x1="   300" y1="  2030" x2="   550" y2="  2110" style = "stroke:silver  ;"/>
  <line x1="   300" y1="  2190" x2="   550" y2="  2270" style = "stroke:silver  ;"/>
  <line x1="   300" y1="  2350" x2="   550" y2="  2430" style = "stroke:silver  ;"/>
  <line x1="   300" y1="  2510" x2="   550" y2="  2590" style = "stroke:silver  ;"/>
  <rect x="   200" y="   100" width="   200" height="    20" style = "fill:snow; stroke: Black;"/>     1
  <text x="   202" y="   113">OutdoorAir:NodeList</text>
  <rect x="   200" y="   180" width="   200" height="    20" style = "fill:wheat; stroke: Black;"/>     7
  <text x="   202" y="   193">PLANT LOOP 1 DEMAND SPLITTER</text>
  <rect x="   700" y="   180" width="   200" height="    20" style = "fill:wheat; stroke: Black;"/>     8
  <text x="   702" y="   193">PLANT LOOP 1 DEMAND MIXER</text>
  <rect x="   700" y="   340" width="   200" height="    20" style = "fill:chartreuse; stroke: Black;"/>    11
  <text x="   702" y="   353">THERMAL ZONE 7</text>
  <rect x="   200" y="   260" width="   200" height="    20" style = "fill:wheat; stroke: Black;"/>    26
  <text x="   202" y="   273">AIR LOOP HVAC ZONE SPLITTER 1</text>
  <rect x="   450" y="   260" width="   200" height="    20" style = "fill:wheat; stroke: Black;"/>    27
  <text  x="   452" y="   268">AIR TERMINAL SINGLE DUCT VAV REHEAT
  <tspan x="   452" y="   276">2</tspan></text>
  <rect x="   450" y="   180" width="   200" height="    20" style = "fill:salmon; stroke: Black;"/>    28
  <text x="   452" y="   193">COIL HEATING WATER 1</text>
  <rect x="   200" y="   420" width="   200" height="    20" style = "fill:salmon; stroke: Black;"/>    30
  <text x="   202" y="   433">COIL HEATING WATER 3</text>
  <rect x="   700" y="   260" width="   200" height="    20" style = "fill:salmon; stroke: Black;"/>    31
  <text x="   702" y="   273">COIL HEATING WATER 3</text>
  <rect x="   200" y="   500" width="   200" height="    20" style = "fill:salmon; stroke: Black;"/>    32
  <text x="   202" y="   513">COIL HEATING WATER 4</text>
  <rect x="   450" y="   580" width="   200" height="    20" style = "fill:salmon; stroke: Black;"/>    33
  <text x="   452" y="   593">COIL HEATING WATER 4</text>
  <rect x="   200" y="   660" width="   200" height="    20" style = "fill:salmon; stroke: Black;"/>    34
  <text x="   202" y="   673">COIL HEATING WATER 5</text>
  <rect x="   450" y="   740" width="   200" height="    20" style = "fill:salmon; stroke: Black;"/>    35
  <text x="   452" y="   753">COIL HEATING WATER 5</text>
  <rect x="   200" y="   820" width="   200" height="    20" style = "fill:salmon; stroke: Black;"/>    36
  <text x="   202" y="   833">COIL HEATING WATER 6</text>
  <rect x="   450" y="   900" width="   200" height="    20" style = "fill:salmon; stroke: Black;"/>    37
  <text x="   452" y="   913">COIL HEATING WATER 6</text>
  <rect x="   200" y="   980" width="   200" height="    20" style = "fill:salmon; stroke: Black;"/>    38
  <text x="   202" y="   993">COIL HEATING WATER 7</text>
  <rect x="   450" y="  1060" width="   200" height="    20" style = "fill:salmon; stroke: Black;"/>    39
  <text x="   452" y="  1073">COIL HEATING WATER 7</text>
  <rect x="   200" y="  1140" width="   200" height="    20" style = "fill:salmon; stroke: Black;"/>    40
  <text x="   202" y="  1153">COIL HEATING WATER 8</text>
  <rect x="   450" y="  1220" width="   200" height="    20" style = "fill:salmon; stroke: Black;"/>    41
  <text x="   452" y="  1233">COIL HEATING WATER 8</text>
  <rect x="   200" y="  1300" width="   200" height="    20" style = "fill:salmon; stroke: Black;"/>    42
  <text x="   202" y="  1313">COIL HEATING WATER 9</text>
  <rect x="   450" y="  1380" width="   200" height="    20" style = "fill:salmon; stroke: Black;"/>    43
  <text x="   452" y="  1393">COIL HEATING WATER 9</text>
  <rect x="   200" y="  1460" width="   200" height="    20" style = "fill:salmon; stroke: Black;"/>    44
  <text x="   202" y="  1473">COIL HEATING WATER 10</text>
  <rect x="   450" y="   340" width="   200" height="    20" style = "fill:salmon; stroke: Black;"/>    45
  <text x="   452" y="   353">COIL HEATING WATER 10</text>
  <rect x="   200" y="  1540" width="   200" height="    20" style = "fill:salmon; stroke: Black;"/>    46
  <text x="   202" y="  1553">COIL HEATING WATER 11</text>
  <rect x="   450" y="  1620" width="   200" height="    20" style = "fill:salmon; stroke: Black;"/>    47
  <text x="   452" y="  1633">COIL HEATING WATER 11</text>
  <rect x="   200" y="  1700" width="   200" height="    20" style = "fill:salmon; stroke: Black;"/>    48
  <text x="   202" y="  1713">COIL HEATING WATER 12</text>
  <rect x="   450" y="  1780" width="   200" height="    20" style = "fill:salmon; stroke: Black;"/>    49
  <text x="   452" y="  1793">COIL HEATING WATER 12</text>
  <rect x="   200" y="  1860" width="   200" height="    20" style = "fill:salmon; stroke: Black;"/>    50
  <text x="   202" y="  1873">COIL HEATING WATER 13</text>
  <rect x="   450" y="  1940" width="   200" height="    20" style = "fill:salmon; stroke: Black;"/>    51
  <text x="   452" y="  1953">COIL HEATING WATER 13</text>
  <rect x="   200" y="  2020" width="   200" height="    20" style = "fill:salmon; stroke: Black;"/>    52
  <text x="   202" y="  2033">COIL HEATING WATER 14</text>
  <rect x="   450" y="  2100" width="   200" height="    20" style = "fill:salmon; stroke: Black;"/>    53
  <text x="   452" y="  2113">COIL HEATING WATER 14</text>
  <rect x="   200" y="  2180" width="   200" height="    20" style = "fill:salmon; stroke: Black;"/>    54
  <text x="   202" y="  2193">COIL HEATING WATER 15</text>
  <rect x="   450" y="  2260" width="   200" height="    20" style = "fill:salmon; stroke: Black;"/>    55
  <text x="   452" y="  2273">COIL HEATING WATER 15</text>
  <rect x="   200" y="  2340" width="   200" height="    20" style = "fill:salmon; stroke: Black;"/>    56
  <text x="   202" y="  2353">COIL HEATING WATER 16</text>
  <rect x="   450" y="  2420" width="   200" height="    20" style = "fill:salmon; stroke: Black;"/>    57
  <text x="   452" y="  2433">COIL HEATING WATER 16</text>
  <rect x="   200" y="  2500" width="   200" height="    20" style = "fill:salmon; stroke: Black;"/>    58
  <text x="   202" y="  2513">COIL HEATING WATER 17</text>
  <rect x="   450" y="  2580" width="   200" height="    20" style = "fill:salmon; stroke: Black;"/>    59
  <text x="   452" y="  2593">COIL HEATING WATER 17</text>
  <rect x="   200" y="   580" width="   200" height="    20" style = "fill:wheat; stroke: Black;"/>    60
  <text  x="   202" y="   588">AIR TERMINAL SINGLE DUCT VAV REHEAT
  <tspan x="   202" y="   596">3</tspan></text>
  <rect x="   200" y="   740" width="   200" height="    20" style = "fill:wheat; stroke: Black;"/>    61
  <text  x="   202" y="   748">AIR TERMINAL SINGLE DUCT VAV REHEAT
  <tspan x="   202" y="   756">4</tspan></text>
  <rect x="   200" y="   900" width="   200" height="    20" style = "fill:wheat; stroke: Black;"/>    62
  <text  x="   202" y="   908">AIR TERMINAL SINGLE DUCT VAV REHEAT
  <tspan x="   202" y="   916">5</tspan></text>
  <rect x="   200" y="  1060" width="   200" height="    20" style = "fill:wheat; stroke: Black;"/>    63
  <text  x="   202" y="  1068">AIR TERMINAL SINGLE DUCT VAV REHEAT
  <tspan x="   202" y="  1076">6</tspan></text>
  <rect x="   200" y="  1220" width="   200" height="    20" style = "fill:wheat; stroke: Black;"/>    64
  <text  x="   202" y="  1228">AIR TERMINAL SINGLE DUCT VAV REHEAT
  <tspan x="   202" y="  1236">7</tspan></text>
  <rect x="   200" y="  1380" width="   200" height="    20" style = "fill:wheat; stroke: Black;"/>    65
  <text  x="   202" y="  1388">AIR TERMINAL SINGLE DUCT VAV REHEAT
  <tspan x="   202" y="  1396">8</tspan></text>
  <rect x="   200" y="   340" width="   200" height="    20" style = "fill:wheat; stroke: Black;"/>    66
  <text  x="   202" y="   348">AIR TERMINAL SINGLE DUCT VAV REHEAT
  <tspan x="   202" y="   356">9</tspan></text>
  <rect x="   200" y="  1620" width="   200" height="    20" style = "fill:wheat; stroke: Black;"/>    67
  <text  x="   202" y="  1628">AIR TERMINAL SINGLE DUCT VAV REHEAT
  <tspan x="   202" y="  1636">10</tspan></text>
  <rect x="   200" y="  1780" width="   200" height="    20" style = "fill:wheat; stroke: Black;"/>    68
  <text  x="   202" y="  1788">AIR TERMINAL SINGLE DUCT VAV REHEAT
  <tspan x="   202" y="  1796">11</tspan></text>
  <rect x="   200" y="  1940" width="   200" height="    20" style = "fill:wheat; stroke: Black;"/>    69
  <text  x="   202" y="  1948">AIR TERMINAL SINGLE DUCT VAV REHEAT
  <tspan x="   202" y="  1956">12</tspan></text>
  <rect x="   200" y="  2100" width="   200" height="    20" style = "fill:wheat; stroke: Black;"/>    70
  <text  x="   202" y="  2108">AIR TERMINAL SINGLE DUCT VAV REHEAT
  <tspan x="   202" y="  2116">13</tspan></text>
  <rect x="   200" y="  2260" width="   200" height="    20" style = "fill:wheat; stroke: Black;"/>    71
  <text  x="   202" y="  2268">AIR TERMINAL SINGLE DUCT VAV REHEAT
  <tspan x="   202" y="  2276">14</tspan></text>
  <rect x="   200" y="  2420" width="   200" height="    20" style = "fill:wheat; stroke: Black;"/>    72
  <text  x="   202" y="  2428">AIR TERMINAL SINGLE DUCT VAV REHEAT
  <tspan x="   202" y="  2436">15</tspan></text>
  <rect x="   200" y="  2580" width="   200" height="    20" style = "fill:wheat; stroke: Black;"/>    73
  <text  x="   202" y="  2588">AIR TERMINAL SINGLE DUCT VAV REHEAT
  <tspan x="   202" y="  2596">16</tspan></text>
  <rect x="  1200" y="   260" width="   200" height="    20" style = "fill:wheat; stroke: Black;"/>    74
  <text x="  1202" y="   273">AIR LOOP HVAC ZONE MIXER 1</text>
  <rect x="   200" y="    20" width="   200" height="    20" style = "fill:lawngreen; stroke: Black;"/>    75
  <text  x="   202" y="    28">OUTDOORAIR:MIXER
  <tspan x="   202" y="    36">{7C85AE74-7F80-4C02-9719-D3E9BB97CED8}</tspan></text>
  <rect x="   700" y="   740" width="   200" height="    20" style = "fill:chartreuse; stroke: Black;"/>    78
  <text x="   702" y="   753">THERMAL ZONE 1</text>
  <rect x="   700" y="  1220" width="   200" height="    20" style = "fill:chartreuse; stroke: Black;"/>    79
  <text x="   702" y="  1233">THERMAL ZONE 13</text>
  <rect x="   700" y="  2580" width="   200" height="    20" style = "fill:chartreuse; stroke: Black;"/>    80
  <text x="   702" y="  2593">THERMAL ZONE 3</text>
  <rect x="   700" y="  1060" width="   200" height="    20" style = "fill:chartreuse; stroke: Black;"/>    81
  <text x="   702" y="  1073">THERMAL ZONE 6</text>
  <rect x="   700" y="   580" width="   200" height="    20" style = "fill:chartreuse; stroke: Black;"/>    82
  <text x="   702" y="   593">THERMAL ZONE 10</text>
  <rect x="   700" y="  2100" width="   200" height="    20" style = "fill:chartreuse; stroke: Black;"/>    83
  <text x="   702" y="  2113">THERMAL ZONE 11</text>
  <rect x="   700" y="  1380" width="   200" height="    20" style = "fill:chartreuse; stroke: Black;"/>    84
  <text x="   702" y="  1393">THERMAL ZONE 15</text>
  <rect x="   700" y="  1780" width="   200" height="    20" style = "fill:chartreuse; stroke: Black;"/>    85
  <text x="   702" y="  1793">THERMAL ZONE 4</text>
  <rect x="   700" y="   900" width="   200" height="    20" style = "fill:chartreuse; stroke: Black;"/>    86
  <text x="   702" y="   913">THERMAL ZONE 9</text>
  <rect x="   700" y="  1620" width="   200" height="    20" style = "fill:chartreuse; stroke: Black;"/>    87
  <text x="   702" y="  1633">THERMAL ZONE 12</text>
  <rect x="   700" y="  2420" width="   200" height="    20" style = "fill:chartreuse; stroke: Black;"/>    88
  <text x="   702" y="  2433">THERMAL ZONE 14</text>
  <rect x="   700" y="  2260" width="   200" height="    20" style = "fill:chartreuse; stroke: Black;"/>    89
  <text x="   702" y="  2273">THERMAL ZONE 2</text>
  <rect x="   950" y="   260" width="   200" height="    20" style = "fill:chartreuse; stroke: Black;"/>    90
  <text x="   952" y="   273">THERMAL ZONE 8</text>
  <rect x="   700" y="  1940" width="   200" height="    20" style = "fill:chartreuse; stroke: Black;"/>    91
  <text x="   702" y="  1953">THERMAL ZONE 5</text>
  <line x1="   400" y1="   190" x2="   450" y2="   190" style = "stroke: Black;"/>
  <line x1="   400" y1="   190" x2="   200" y2="   430" style = "stroke: Black;"/>
  <line x1="   400" y1="   190" x2="   200" y2="   510" style = "stroke: Black;"/>
  <line x1="   400" y1="   190" x2="   200" y2="   670" style = "stroke: Black;"/>
  <line x1="   400" y1="   190" x2="   200" y2="   830" style = "stroke: Black;"/>
  <line x1="   400" y1="   190" x2="   200" y2="   990" style = "stroke: Black;"/>
  <line x1="   400" y1="   190" x2="   200" y2="  1150" style = "stroke: Black;"/>
  <line x1="   400" y1="   190" x2="   200" y2="  1310" style = "stroke: Black;"/>
  <line x1="   400" y1="   190" x2="   200" y2="  1470" style = "stroke: Black;"/>
  <line x1="   400" y1="   190" x2="   200" y2="  1550" style = "stroke: Black;"/>
  <line x1="   400" y1="   190" x2="   200" y2="  1710" style = "stroke: Black;"/>
  <line x1="   400" y1="   190" x2="   200" y2="  1870" style = "stroke: Black;"/>
  <line x1="   400" y1="   190" x2="   200" y2="  2030" style = "stroke: Black;"/>
  <line x1="   400" y1="   190" x2="   200" y2="  2190" style = "stroke: Black;"/>
  <line x1="   400" y1="   190" x2="   200" y2="  2350" style = "stroke: Black;"/>
  <line x1="   400" y1="   190" x2="   200" y2="  2510" style = "stroke: Black;"/>
  <line x1="   400" y1="   270" x2="   450" y2="   270" style = "stroke: Black;"/>
  <line x1="   400" y1="   270" x2="   200" y2="   590" style = "stroke: Black;"/>
  <line x1="   400" y1="   270" x2="   200" y2="   750" style = "stroke: Black;"/>
  <line x1="   400" y1="   270" x2="   200" y2="   910" style = "stroke: Black;"/>
  <line x1="   400" y1="   270" x2="   200" y2="  1070" style = "stroke: Black;"/>
  <line x1="   400" y1="   270" x2="   200" y2="  1230" style = "stroke: Black;"/>
  <line x1="   400" y1="   270" x2="   200" y2="  1390" style = "stroke: Black;"/>
  <line x1="   400" y1="   270" x2="   200" y2="   350" style = "stroke: Black;"/>
  <line x1="   400" y1="   270" x2="   200" y2="  1630" style = "stroke: Black;"/>
  <line x1="   400" y1="   270" x2="   200" y2="  1790" style = "stroke: Black;"/>
  <line x1="   400" y1="   270" x2="   200" y2="  1950" style = "stroke: Black;"/>
  <line x1="   400" y1="   270" x2="   200" y2="  2110" style = "stroke: Black;"/>
  <line x1="   400" y1="   270" x2="   200" y2="  2270" style = "stroke: Black;"/>
  <line x1="   400" y1="   270" x2="   200" y2="  2430" style = "stroke: Black;"/>
  <line x1="   400" y1="   270" x2="   200" y2="  2590" style = "stroke: Black;"/>
  <line x1="   650" y1="   270" x2="   700" y2="   270" style = "stroke: Black;"/>
  <line x1="   650" y1="   190" x2="   700" y2="   190" style = "stroke: Black;"/>
  <line x1="   400" y1="   430" x2="   400" y2="   430" style = "stroke: Black;"/>
  <line x1="   400" y1="   430" x2="   400" y2="   430" style = "stroke: Black;"/>
  <line x1="   400" y1="   430" x2="   700" y2="   190" style = "stroke: Black;"/>
  <line x1="   900" y1="   270" x2="   950" y2="   270" style = "stroke: Black;"/>
  <line x1="   400" y1="   510" x2="   400" y2="   510" style = "stroke: Black;"/>
  <line x1="   400" y1="   510" x2="   400" y2="   510" style = "stroke: Black;"/>
  <line x1="   400" y1="   510" x2="   700" y2="   190" style = "stroke: Black;"/>
  <line x1="   650" y1="   590" x2="   700" y2="   590" style = "stroke: Black;"/>
  <line x1="   400" y1="   670" x2="   400" y2="   670" style = "stroke: Black;"/>
  <line x1="   400" y1="   670" x2="   400" y2="   670" style = "stroke: Black;"/>
  <line x1="   400" y1="   670" x2="   700" y2="   190" style = "stroke: Black;"/>
  <line x1="   650" y1="   750" x2="   700" y2="   750" style = "stroke: Black;"/>
  <line x1="   400" y1="   830" x2="   400" y2="   830" style = "stroke: Black;"/>
  <line x1="   400" y1="   830" x2="   400" y2="   830" style = "stroke: Black;"/>
  <line x1="   400" y1="   830" x2="   700" y2="   190" style = "stroke: Black;"/>
  <line x1="   650" y1="   910" x2="   700" y2="   910" style = "stroke: Black;"/>
  <line x1="   400" y1="   990" x2="   400" y2="   990" style = "stroke: Black;"/>
  <line x1="   400" y1="   990" x2="   400" y2="   990" style = "stroke: Black;"/>
  <line x1="   400" y1="   990" x2="   700" y2="   190" style = "stroke: Black;"/>
  <line x1="   650" y1="  1070" x2="   700" y2="  1070" style = "stroke: Black;"/>
  <line x1="   400" y1="  1150" x2="   400" y2="  1150" style = "stroke: Black;"/>
  <line x1="   400" y1="  1150" x2="   400" y2="  1150" style = "stroke: Black;"/>
  <line x1="   400" y1="  1150" x2="   700" y2="   190" style = "stroke: Black;"/>
  <line x1="   650" y1="  1230" x2="   700" y2="  1230" style = "stroke: Black;"/>
  <line x1="   400" y1="  1310" x2="   400" y2="  1310" style = "stroke: Black;"/>
  <line x1="   400" y1="  1310" x2="   400" y2="  1310" style = "stroke: Black;"/>
  <line x1="   400" y1="  1310" x2="   700" y2="   190" style = "stroke: Black;"/>
  <line x1="   650" y1="  1390" x2="   700" y2="  1390" style = "stroke: Black;"/>
  <line x1="   400" y1="  1470" x2="   400" y2="  1470" style = "stroke: Black;"/>
  <line x1="   400" y1="  1470" x2="   400" y2="  1470" style = "stroke: Black;"/>
  <line x1="   400" y1="  1470" x2="   700" y2="   190" style = "stroke: Black;"/>
  <line x1="   650" y1="   350" x2="   700" y2="   350" style = "stroke: Black;"/>
  <line x1="   400" y1="  1550" x2="   400" y2="  1550" style = "stroke: Black;"/>
  <line x1="   400" y1="  1550" x2="   400" y2="  1550" style = "stroke: Black;"/>
  <line x1="   400" y1="  1550" x2="   700" y2="   190" style = "stroke: Black;"/>
  <line x1="   650" y1="  1630" x2="   700" y2="  1630" style = "stroke: Black;"/>
  <line x1="   400" y1="  1710" x2="   400" y2="  1710" style = "stroke: Black;"/>
  <line x1="   400" y1="  1710" x2="   400" y2="  1710" style = "stroke: Black;"/>
  <line x1="   400" y1="  1710" x2="   700" y2="   190" style = "stroke: Black;"/>
  <line x1="   650" y1="  1790" x2="   700" y2="  1790" style = "stroke: Black;"/>
  <line x1="   400" y1="  1870" x2="   400" y2="  1870" style = "stroke: Black;"/>
  <line x1="   400" y1="  1870" x2="   400" y2="  1870" style = "stroke: Black;"/>
  <line x1="   400" y1="  1870" x2="   700" y2="   190" style = "stroke: Black;"/>
  <line x1="   650" y1="  1950" x2="   700" y2="  1950" style = "stroke: Black;"/>
  <line x1="   400" y1="  2030" x2="   400" y2="  2030" style = "stroke: Black;"/>
  <line x1="   400" y1="  2030" x2="   400" y2="  2030" style = "stroke: Black;"/>
  <line x1="   400" y1="  2030" x2="   700" y2="   190" style = "stroke: Black;"/>
  <line x1="   650" y1="  2110" x2="   700" y2="  2110" style = "stroke: Black;"/>
  <line x1="   400" y1="  2190" x2="   400" y2="  2190" style = "stroke: Black;"/>
  <line x1="   400" y1="  2190" x2="   400" y2="  2190" style = "stroke: Black;"/>
  <line x1="   400" y1="  2190" x2="   700" y2="   190" style = "stroke: Black;"/>
  <line x1="   650" y1="  2270" x2="   700" y2="  2270" style = "stroke: Black;"/>
  <line x1="   400" y1="  2350" x2="   400" y2="  2350" style = "stroke: Black;"/>
  <line x1="   400" y1="  2350" x2="   400" y2="  2350" style = "stroke: Black;"/>
  <line x1="   400" y1="  2350" x2="   700" y2="   190" style = "stroke: Black;"/>
  <line x1="   650" y1="  2430" x2="   700" y2="  2430" style = "stroke: Black;"/>
  <line x1="   400" y1="  2510" x2="   400" y2="  2510" style = "stroke: Black;"/>
  <line x1="   400" y1="  2510" x2="   400" y2="  2510" style = "stroke: Black;"/>
  <line x1="   400" y1="  2510" x2="   700" y2="   190" style = "stroke: Black;"/>
  <line x1="   650" y1="  2590" x2="   700" y2="  2590" style = "stroke: Black;"/>
  <line x1="   400" y1="   590" x2="   450" y2="   590" style = "stroke: Black;"/>
  <line x1="   400" y1="   750" x2="   450" y2="   750" style = "stroke: Black;"/>
  <line x1="   400" y1="   910" x2="   450" y2="   910" style = "stroke: Black;"/>
  <line x1="   400" y1="  1070" x2="   450" y2="  1070" style = "stroke: Black;"/>
  <line x1="   400" y1="  1230" x2="   450" y2="  1230" style = "stroke: Black;"/>
  <line x1="   400" y1="  1390" x2="   450" y2="  1390" style = "stroke: Black;"/>
  <line x1="   400" y1="   350" x2="   450" y2="   350" style = "stroke: Black;"/>
  <line x1="   400" y1="  1630" x2="   450" y2="  1630" style = "stroke: Black;"/>
  <line x1="   400" y1="  1790" x2="   450" y2="  1790" style = "stroke: Black;"/>
  <line x1="   400" y1="  1950" x2="   450" y2="  1950" style = "stroke: Black;"/>
  <line x1="   400" y1="  2110" x2="   450" y2="  2110" style = "stroke: Black;"/>
  <line x1="   400" y1="  2270" x2="   450" y2="  2270" style = "stroke: Black;"/>
  <line x1="   400" y1="  2430" x2="   450" y2="  2430" style = "stroke: Black;"/>
  <line x1="   400" y1="  2590" x2="   450" y2="  2590" style = "stroke: Black;"/>
  <line x1="  1400" y1="   270" x2="   200" y2="    30" style = "stroke: Black;"/>
  <line x1="   900" y1="   350" x2="   900" y2="   350" style = "stroke: Black;"/>
  <line x1="   900" y1="   350" x2="   900" y2="   350" style = "stroke: Black;"/>
  <line x1="   900" y1="   350" x2="  1200" y2="   270" style = "stroke: Black;"/>
  <line x1="   900" y1="   750" x2="   900" y2="   750" style = "stroke: Black;"/>
  <line x1="   900" y1="   750" x2="   900" y2="   750" style = "stroke: Black;"/>
  <line x1="   900" y1="   750" x2="  1200" y2="   270" style = "stroke: Black;"/>
  <line x1="   900" y1="  1230" x2="   900" y2="  1230" style = "stroke: Black;"/>
  <line x1="   900" y1="  1230" x2="   900" y2="  1230" style = "stroke: Black;"/>
  <line x1="   900" y1="  1230" x2="  1200" y2="   270" style = "stroke: Black;"/>
  <line x1="   900" y1="  2590" x2="   900" y2="  2590" style = "stroke: Black;"/>
  <line x1="   900" y1="  2590" x2="   900" y2="  2590" style = "stroke: Black;"/>
  <line x1="   900" y1="  2590" x2="  1200" y2="   270" style = "stroke: Black;"/>
  <line x1="   900" y1="  1070" x2="   900" y2="  1070" style = "stroke: Black;"/>
  <line x1="   900" y1="  1070" x2="   900" y2="  1070" style = "stroke: Black;"/>
  <line x1="   900" y1="  1070" x2="  1200" y2="   270" style = "stroke: Black;"/>
  <line x1="   900" y1="   590" x2="   900" y2="   590" style = "stroke: Black;"/>
  <line x1="   900" y1="   590" x2="   900" y2="   590" style = "stroke: Black;"/>
  <line x1="   900" y1="   590" x2="  1200" y2="   270" style = "stroke: Black;"/>
  <line x1="   900" y1="  2110" x2="   900" y2="  2110" style = "stroke: Black;"/>
  <line x1="   900" y1="  2110" x2="   900" y2="  2110" style = "stroke: Black;"/>
  <line x1="   900" y1="  2110" x2="  1200" y2="   270" style = "stroke: Black;"/>
  <line x1="   900" y1="  1390" x2="   900" y2="  1390" style = "stroke: Black;"/>
  <line x1="   900" y1="  1390" x2="   900" y2="  1390" style = "stroke: Black;"/>
  <line x1="   900" y1="  1390" x2="  1200" y2="   270" style = "stroke: Black;"/>
  <line x1="   900" y1="  1790" x2="   900" y2="  1790" style = "stroke: Black;"/>
  <line x1="   900" y1="  1790" x2="   900" y2="  1790" style = "stroke: Black;"/>
  <line x1="   900" y1="  1790" x2="  1200" y2="   270" style = "stroke: Black;"/>
  <line x1="   900" y1="   910" x2="   900" y2="   910" style = "stroke: Black;"/>
  <line x1="   900" y1="   910" x2="   900" y2="   910" style = "stroke: Black;"/>
  <line x1="   900" y1="   910" x2="  1200" y2="   270" style = "stroke: Black;"/>
  <line x1="   900" y1="  1630" x2="   900" y2="  1630" style = "stroke: Black;"/>
  <line x1="   900" y1="  1630" x2="   900" y2="  1630" style = "stroke: Black;"/>
  <line x1="   900" y1="  1630" x2="  1200" y2="   270" style = "stroke: Black;"/>
  <line x1="   900" y1="  2430" x2="   900" y2="  2430" style = "stroke: Black;"/>
  <line x1="   900" y1="  2430" x2="   900" y2="  2430" style = "stroke: Black;"/>
  <line x1="   900" y1="  2430" x2="  1200" y2="   270" style = "stroke: Black;"/>
  <line x1="   900" y1="  2270" x2="   900" y2="  2270" style = "stroke: Black;"/>
  <line x1="   900" y1="  2270" x2="   900" y2="  2270" style = "stroke: Black;"/>
  <line x1="   900" y1="  2270" x2="  1200" y2="   270" style = "stroke: Black;"/>
  <line x1="  1150" y1="   270" x2="  1200" y2="   270" style = "stroke: Black;"/>
  <line x1="   900" y1="  1950" x2="   900" y2="  1950" style = "stroke: Black;"/>
  <line x1="   900" y1="  1950" x2="   900" y2="  1950" style = "stroke: Black;"/>
  <line x1="   900" y1="  1950" x2="  1200" y2="   270" style = "stroke: Black;"/>
  <text x="   200" y="  2640">Unused Non-Parent Objects:</text>
  <text x="   220" y="  2660">SETPOINT MANAGER SCHEDULED 1</text>
  <text x="   220" y="  2680">SETPOINT MANAGER SCHEDULED 2</text>
  <text x="   220" y="  2700">SETPOINT MANAGER MIXED AIR 3</text>
  <text x="   220" y="  2720">SETPOINT MANAGER MIXED AIR 2</text>
  <text x="   220" y="  2740">SETPOINT MANAGER MIXED AIR 1</text>
  <text x="   220" y="  2760">PLANT LOOP 1 SUPPLY SPLITTER</text>
  <text x="   220" y="  2780">PLANT LOOP 1 SUPPLY MIXER</text>
  <text x="   220" y="  2800">CONTROLLER WATER COIL 1</text>
  <text x="   220" y="  2820">CONTROLLER OUTDOOR AIR 1</text>
  <text x="   200" y="  2860">
The following are not supported: objects related to controls, AirTerminal:SingleDuct:Uncontrolled, or ZoneHVAC:IdealLoadsAirSystem</text>
</g>
</svg>
