<?xml version="1.0"?>
<svg width="250mm" height="200mm" viewBox="0 0   2500    1500"
     xmlns="http://www.w3.org/2000/svg"
     xmlns:xlink="http://www.w3.org/1999/xlink"
     xmlns:ev="http://www.w3.org/2001/xml-events">
<g font-family="Verdana" font-size="8" >
  <line x1="   300" y1="   190" x2="   800" y2="   110" style = "stroke:silver  ;"/>
  <line x1="   300" y1="   270" x2="   550" y2="   350" style = "stroke:silver  ;"/>
  <line x1="   300" y1="   430" x2="   550" y2="   510" style = "stroke:silver  ;"/>
  <line x1="   300" y1="   590" x2="   550" y2="   670" style = "stroke:silver  ;"/>
  <line x1="   300" y1="   750" x2="   550" y2="   830" style = "stroke:silver  ;"/>
  <rect x="   200" y="    20" width="   200" height="    20" style = "fill:wheat; stroke: Black;"/>     7
  <text x="   202" y="    33">PLANT LOOP 1 DEMAND SPLITTER</text>
  <rect x="   700" y="    20" width="   200" height="    20" style = "fill:wheat; stroke: Black;"/>     8
  <text x="   702" y="    33">PLANT LOOP 1 DEMAND MIXER</text>
  <rect x="   950" y="   100" width="   200" height="    20" style = "fill:chartreuse; stroke: Black;"/>    11
  <text x="   952" y="   113">THERMAL ZONE 5</text>
  <rect x="   200" y="   100" width="   200" height="    20" style = "fill:wheat; stroke: Black;"/>    16
  <text x="   202" y="   113">AIR LOOP HVAC ZONE SPLITTER 1</text>
  <rect x="   450" y="   100" width="   200" height="    20" style = "fill:wheat; stroke: Black;"/>    17
  <text  x="   452" y="   108">AIR TERMINAL SINGLE DUCT VAV REHEAT
  <tspan x="   452" y="   116">2</tspan></text>
  <rect x="   450" y="    20" width="   200" height="    20" style = "fill:salmon; stroke: Black;"/>    18
  <text x="   452" y="    33">COIL HEATING WATER 1</text>
  <rect x="   200" y="   180" width="   200" height="    20" style = "fill:salmon; stroke: Black;"/>    20
  <text x="   202" y="   193">COIL HEATING WATER 3</text>
  <rect x="   700" y="   100" width="   200" height="    20" style = "fill:salmon; stroke: Black;"/>    21
  <text x="   702" y="   113">COIL HEATING WATER 3</text>
  <rect x="   200" y="   260" width="   200" height="    20" style = "fill:salmon; stroke: Black;"/>    22
  <text x="   202" y="   273">COIL HEATING WATER 4</text>
  <rect x="   450" y="   340" width="   200" height="    20" style = "fill:salmon; stroke: Black;"/>    23
  <text x="   452" y="   353">COIL HEATING WATER 4</text>
  <rect x="   200" y="   420" width="   200" height="    20" style = "fill:salmon; stroke: Black;"/>    24
  <text x="   202" y="   433">COIL HEATING WATER 5</text>
  <rect x="   450" y="   500" width="   200" height="    20" style = "fill:salmon; stroke: Black;"/>    25
  <text x="   452" y="   513">COIL HEATING WATER 5</text>
  <rect x="   200" y="   580" width="   200" height="    20" style = "fill:salmon; stroke: Black;"/>    26
  <text x="   202" y="   593">COIL HEATING WATER 6</text>
  <rect x="   450" y="   660" width="   200" height="    20" style = "fill:salmon; stroke: Black;"/>    27
  <text x="   452" y="   673">COIL HEATING WATER 6</text>
  <rect x="   200" y="   740" width="   200" height="    20" style = "fill:salmon; stroke: Black;"/>    28
  <text x="   202" y="   753">COIL HEATING WATER 7</text>
  <rect x="   450" y="   820" width="   200" height="    20" style = "fill:salmon; stroke: Black;"/>    29
  <text x="   452" y="   833">COIL HEATING WATER 7</text>
  <rect x="   200" y="   340" width="   200" height="    20" style = "fill:wheat; stroke: Black;"/>    30
  <text  x="   202" y="   348">AIR TERMINAL SINGLE DUCT VAV REHEAT
  <tspan x="   202" y="   356">3</tspan></text>
  <rect x="   200" y="   500" width="   200" height="    20" style = "fill:wheat; stroke: Black;"/>    31
  <text  x="   202" y="   508">AIR TERMINAL SINGLE DUCT VAV REHEAT
  <tspan x="   202" y="   516">4</tspan></text>
  <rect x="   200" y="   660" width="   200" height="    20" style = "fill:wheat; stroke: Black;"/>    32
  <text  x="   202" y="   668">AIR TERMINAL SINGLE DUCT VAV REHEAT
  <tspan x="   202" y="   676">5</tspan></text>
  <rect x="   200" y="   820" width="   200" height="    20" style = "fill:wheat; stroke: Black;"/>    33
  <text  x="   202" y="   828">AIR TERMINAL SINGLE DUCT VAV REHEAT
  <tspan x="   202" y="   836">6</tspan></text>
  <rect x="  1200" y="   100" width="   200" height="    20" style = "fill:wheat; stroke: Black;"/>    34
  <text x="  1202" y="   113">AIR LOOP HVAC ZONE MIXER 1</text>
  <rect x="   700" y="   500" width="   200" height="    20" style = "fill:chartreuse; stroke: Black;"/>    35
  <text x="   702" y="   513">THERMAL ZONE 4</text>
  <rect x="   700" y="   660" width="   200" height="    20" style = "fill:chartreuse; stroke: Black;"/>    36
  <text x="   702" y="   673">THERMAL ZONE 2</text>
  <rect x="   700" y="   340" width="   200" height="    20" style = "fill:chartreuse; stroke: Black;"/>    37
  <text x="   702" y="   353">THERMAL ZONE 1</text>
  <rect x="   700" y="   820" width="   200" height="    20" style = "fill:chartreuse; stroke: Black;"/>    38
  <text x="   702" y="   833">THERMAL ZONE 3</text>
  <line x1="   400" y1="    30" x2="   450" y2="    30" style = "stroke: Black;"/>
  <line x1="   400" y1="    30" x2="   200" y2="   190" style = "stroke: Black;"/>
  <line x1="   400" y1="    30" x2="   200" y2="   270" style = "stroke: Black;"/>
  <line x1="   400" y1="    30" x2="   200" y2="   430" style = "stroke: Black;"/>
  <line x1="   400" y1="    30" x2="   200" y2="   590" style = "stroke: Black;"/>
  <line x1="   400" y1="    30" x2="   200" y2="   750" style = "stroke: Black;"/>
  <line x1="   400" y1="   110" x2="   450" y2="   110" style = "stroke: Black;"/>
  <line x1="   400" y1="   110" x2="   200" y2="   350" style = "stroke: Black;"/>
  <line x1="   400" y1="   110" x2="   200" y2="   510" style = "stroke: Black;"/>
  <line x1="   400" y1="   110" x2="   200" y2="   670" style = "stroke: Black;"/>
  <line x1="   400" y1="   110" x2="   200" y2="   830" style = "stroke: Black;"/>
  <line x1="   650" y1="   110" x2="   700" y2="   110" style = "stroke: Black;"/>
  <line x1="   650" y1="    30" x2="   700" y2="    30" style = "stroke: Black;"/>
  <line x1="   400" y1="   190" x2="   400" y2="   190" style = "stroke: Black;"/>
  <line x1="   400" y1="   190" x2="   400" y2="   190" style = "stroke: Black;"/>
  <line x1="   400" y1="   190" x2="   700" y2="    30" style = "stroke: Black;"/>
  <line x1="   900" y1="   110" x2="   950" y2="   110" style = "stroke: Black;"/>
  <line x1="   400" y1="   270" x2="   400" y2="   270" style = "stroke: Black;"/>
  <line x1="   400" y1="   270" x2="   400" y2="   270" style = "stroke: Black;"/>
  <line x1="   400" y1="   270" x2="   700" y2="    30" style = "stroke: Black;"/>
  <line x1="   650" y1="   350" x2="   700" y2="   350" style = "stroke: Black;"/>
  <line x1="   400" y1="   430" x2="   400" y2="   430" style = "stroke: Black;"/>
  <line x1="   400" y1="   430" x2="   400" y2="   430" style = "stroke: Black;"/>
  <line x1="   400" y1="   430" x2="   700" y2="    30" style = "stroke: Black;"/>
  <line x1="   650" y1="   510" x2="   700" y2="   510" style = "stroke: Black;"/>
  <line x1="   400" y1="   590" x2="   400" y2="   590" style = "stroke: Black;"/>
  <line x1="   400" y1="   590" x2="   400" y2="   590" style = "stroke: Black;"/>
  <line x1="   400" y1="   590" x2="   700" y2="    30" style = "stroke: Black;"/>
  <line x1="   650" y1="   670" x2="   700" y2="   670" style = "stroke: Black;"/>
  <line x1="   400" y1="   750" x2="   400" y2="   750" style = "stroke: Black;"/>
  <line x1="   400" y1="   750" x2="   400" y2="   750" style = "stroke: Black;"/>
  <line x1="   400" y1="   750" x2="   700" y2="    30" style = "stroke: Black;"/>
  <line x1="   650" y1="   830" x2="   700" y2="   830" style = "stroke: Black;"/>
  <line x1="   400" y1="   350" x2="   450" y2="   350" style = "stroke: Black;"/>
  <line x1="   400" y1="   510" x2="   450" y2="   510" style = "stroke: Black;"/>
  <line x1="   400" y1="   670" x2="   450" y2="   670" style = "stroke: Black;"/>
  <line x1="   400" y1="   830" x2="   450" y2="   830" style = "stroke: Black;"/>
  <line x1="  1150" y1="   110" x2="  1200" y2="   110" style = "stroke: Black;"/>
  <line x1="   900" y1="   510" x2="   900" y2="   510" style = "stroke: Black;"/>
  <line x1="   900" y1="   510" x2="   900" y2="   510" style = "stroke: Black;"/>
  <line x1="   900" y1="   510" x2="  1200" y2="   110" style = "stroke: Black;"/>
  <line x1="   900" y1="   350" x2="   900" y2="   350" style = "stroke: Black;"/>
  <line x1="   900" y1="   350" x2="   900" y2="   350" style = "stroke: Black;"/>
  <line x1="   900" y1="   350" x2="  1200" y2="   110" style = "stroke: Black;"/>
  <text x="   200" y="   880">Unused Non-Parent Objects:</text>
  <text x="   220" y="   900">OutdoorAir:NodeList</text>
  <text x="   220" y="   920">SETPOINT MANAGER SCHEDULED 1</text>
  <text x="   220" y="   940">SETPOINT MANAGER SCHEDULED 2</text>
  <text x="   220" y="   960">SETPOINT MANAGER MIXED AIR 3</text>
  <text x="   220" y="   980">SETPOINT MANAGER MIXED AIR 2</text>
  <text x="   220" y="  1000">SETPOINT MANAGER MIXED AIR 1</text>
  <text x="   220" y="  1020">PLANT LOOP 1 SUPPLY SPLITTER</text>
  <text x="   220" y="  1040">PLANT LOOP 1 SUPPLY MIXER</text>
  <text x="   200" y="  1080">
The following are not supported: objects related to controls, AirTerminal:SingleDuct:Uncontrolled, or ZoneHVAC:IdealLoadsAirSystem</text>
</g>
</svg>
