<?xml version="1.0"?>
<svg width="250mm" height="200mm" viewBox="0 0   2500    1500"
     xmlns="http://www.w3.org/2000/svg"
     xmlns:xlink="http://www.w3.org/1999/xlink"
     xmlns:ev="http://www.w3.org/2001/xml-events">
<g font-family="Verdana" font-size="8" >
  <text x="     1" y="     1">ERROR - COULD NOT COMPLETE DRAWING! Examine ERR file for possible explanation. Last error message is:   "Error: No node connection found after the following object: COIL COOLING DX TWO SPEED 1"</text>
  <rect x="   200" y="    20" width="     1" height="     1" style = "fill:lawngreen; stroke: Black;"/>   195
  <text  x="   202" y="     9">OUTDOORAIR:MIXER
  <tspan x="   202" y="    17">{E9FA44AC-2945-4E12-8F3E-0C89FEA7D516}</tspan></text>
  <rect x="   200" y="    20" width="     1" height="     1" style = "fill:skyblue; stroke: Black;"/>   198
  <text x="   202" y="    14">COIL COOLING DX TWO SPEED 1</text>
  <line x1="   201" y1="    20" x2="   200" y2="    20" style = "stroke: Black;"/>
  <text x="   200" y="    61">Unused Non-Parent Objects:</text>
  <text x="   220" y="    81">OutdoorAir:NodeList</text>
  <text x="   220" y="   101">SETPOINT MANAGER SCHEDULED 1</text>
  <text x="   220" y="   121">SETPOINT MANAGER SCHEDULED 2</text>
  <text x="   220" y="   141">SETPOINT MANAGER MIXED AIR 3</text>
  <text x="   220" y="   161">SETPOINT MANAGER MIXED AIR 2</text>
  <text x="   220" y="   181">SETPOINT MANAGER MIXED AIR 1</text>
  <text x="   220" y="   201">PLANT LOOP 1 DEMAND SPLITTER</text>
  <text x="   220" y="   221">PLANT LOOP 1 DEMAND MIXER</text>
  <text x="   220" y="   241">PLANT LOOP 1 SUPPLY SPLITTER</text>
  <text x="   220" y="   261">PLANT LOOP 1 SUPPLY MIXER</text>
  <text x="   220" y="   281">THERMAL ZONE 32</text>
  <text x="   220" y="   301">THERMAL ZONE 20</text>
  <text x="   220" y="   321">THERMAL ZONE 39</text>
  <text x="   220" y="   341">THERMAL ZONE 6</text>
  <text x="   220" y="   361">THERMAL ZONE 40</text>
  <text x="   220" y="   381">THERMAL ZONE 1</text>
  <text x="   220" y="   401">THERMAL ZONE 2</text>
  <text x="   220" y="   421">THERMAL ZONE 23</text>
  <text x="   220" y="   441">THERMAL ZONE 25</text>
  <text x="   220" y="   461">THERMAL ZONE 28</text>
  <text x="   220" y="   481">THERMAL ZONE 30</text>
  <text x="   220" y="   501">THERMAL ZONE 13</text>
  <text x="   220" y="   521">THERMAL ZONE 35</text>
  <text x="   220" y="   541">THERMAL ZONE 36</text>
  <text x="   220" y="   561">THERMAL ZONE 15</text>
  <text x="   220" y="   581">THERMAL ZONE 29</text>
  <text x="   220" y="   601">THERMAL ZONE 22</text>
  <text x="   220" y="   621">THERMAL ZONE 14</text>
  <text x="   220" y="   641">THERMAL ZONE 7</text>
  <text x="   220" y="   661">THERMAL ZONE 9</text>
  <text x="   220" y="   681">THERMAL ZONE 4</text>
  <text x="   220" y="   701">THERMAL ZONE 41</text>
  <text x="   220" y="   721">THERMAL ZONE 45</text>
  <text x="   220" y="   741">THERMAL ZONE 31</text>
  <text x="   220" y="   761">THERMAL ZONE 11</text>
  <text x="   220" y="   781">THERMAL ZONE 42</text>
  <text x="   220" y="   801">THERMAL ZONE 21</text>
  <text x="   220" y="   821">THERMAL ZONE 16</text>
  <text x="   220" y="   841">THERMAL ZONE 33</text>
  <text x="   220" y="   861">THERMAL ZONE 17</text>
  <text x="   220" y="   881">THERMAL ZONE 38</text>
  <text x="   220" y="   901">THERMAL ZONE 27</text>
  <text x="   220" y="   921">THERMAL ZONE 24</text>
  <text x="   220" y="   941">THERMAL ZONE 26</text>
  <text x="   220" y="   961">THERMAL ZONE 19</text>
  <text x="   220" y="   981">THERMAL ZONE 8</text>
  <text x="   220" y="  1001">THERMAL ZONE 18</text>
  <text x="   220" y="  1021">THERMAL ZONE 37</text>
  <text x="   220" y="  1041">THERMAL ZONE 3</text>
  <text x="   220" y="  1061">THERMAL ZONE 43</text>
  <text x="   220" y="  1081">THERMAL ZONE 5</text>
  <text x="   220" y="  1101">THERMAL ZONE 10</text>
  <text x="   220" y="  1121">THERMAL ZONE 12</text>
  <text x="   220" y="  1141">THERMAL ZONE 34</text>
  <text x="   220" y="  1161">THERMAL ZONE 44</text>
  <text x="   220" y="  1181">AIR LOOP HVAC ZONE SPLITTER 1</text>
  <text x="   220" y="  1201">AIR TERMINAL SINGLE DUCT VAV REHEAT 2</text>
  <text x="   220" y="  1221">COIL HEATING WATER 1</text>
  <text x="   220" y="  1241">COIL HEATING WATER 1</text>
  <text x="   220" y="  1261">COIL HEATING WATER 3</text>
  <text x="   220" y="  1281">COIL HEATING WATER 3</text>
  <text x="   220" y="  1301">COIL HEATING WATER 4</text>
  <text x="   220" y="  1321">COIL HEATING WATER 4</text>
  <text x="   220" y="  1341">COIL HEATING WATER 5</text>
  <text x="   220" y="  1361">COIL HEATING WATER 5</text>
  <text x="   220" y="  1381">COIL HEATING WATER 6</text>
  <text x="   220" y="  1401">COIL HEATING WATER 6</text>
  <text x="   220" y="  1421">COIL HEATING WATER 7</text>
  <text x="   220" y="  1441">COIL HEATING WATER 7</text>
  <text x="   220" y="  1461">COIL HEATING WATER 8</text>
  <text x="   220" y="  1481">COIL HEATING WATER 8</text>
  <text x="   220" y="  1501">COIL HEATING WATER 9</text>
  <text x="   220" y="  1521">COIL HEATING WATER 9</text>
  <text x="   220" y="  1541">COIL HEATING WATER 10</text>
  <text x="   220" y="  1561">COIL HEATING WATER 10</text>
  <text x="   220" y="  1581">COIL HEATING WATER 11</text>
  <text x="   220" y="  1601">COIL HEATING WATER 11</text>
  <text x="   220" y="  1621">COIL HEATING WATER 12</text>
  <text x="   220" y="  1641">COIL HEATING WATER 12</text>
  <text x="   220" y="  1661">COIL HEATING WATER 13</text>
  <text x="   220" y="  1681">COIL HEATING WATER 13</text>
  <text x="   220" y="  1701">COIL HEATING WATER 14</text>
  <text x="   220" y="  1721">COIL HEATING WATER 14</text>
  <text x="   220" y="  1741">COIL HEATING WATER 15</text>
  <text x="   220" y="  1761">COIL HEATING WATER 15</text>
  <text x="   220" y="  1781">COIL HEATING WATER 16</text>
  <text x="   220" y="  1801">COIL HEATING WATER 16</text>
  <text x="   220" y="  1821">COIL HEATING WATER 17</text>
  <text x="   220" y="  1841">COIL HEATING WATER 17</text>
  <text x="   220" y="  1861">COIL HEATING WATER 18</text>
  <text x="   220" y="  1881">COIL HEATING WATER 18</text>
  <text x="   220" y="  1901">COIL HEATING WATER 19</text>
  <text x="   220" y="  1921">COIL HEATING WATER 19</text>
  <text x="   220" y="  1941">COIL HEATING WATER 20</text>
  <text x="   220" y="  1961">COIL HEATING WATER 20</text>
  <text x="   220" y="  1981">COIL HEATING WATER 21</text>
  <text x="   220" y="  2001">COIL HEATING WATER 21</text>
  <text x="   220" y="  2021">COIL HEATING WATER 22</text>
  <text x="   220" y="  2041">COIL HEATING WATER 22</text>
  <text x="   220" y="  2061">COIL HEATING WATER 23</text>
  <text x="   220" y="  2081">COIL HEATING WATER 23</text>
  <text x="   220" y="  2101">COIL HEATING WATER 24</text>
  <text x="   220" y="  2121">COIL HEATING WATER 24</text>
  <text x="   220" y="  2141">COIL HEATING WATER 25</text>
  <text x="   220" y="  2161">COIL HEATING WATER 25</text>
  <text x="   220" y="  2181">COIL HEATING WATER 26</text>
  <text x="   220" y="  2201">COIL HEATING WATER 26</text>
  <text x="   220" y="  2221">COIL HEATING WATER 27</text>
  <text x="   220" y="  2241">COIL HEATING WATER 27</text>
  <text x="   220" y="  2261">COIL HEATING WATER 28</text>
  <text x="   220" y="  2281">COIL HEATING WATER 28</text>
  <text x="   220" y="  2301">COIL HEATING WATER 29</text>
  <text x="   220" y="  2321">COIL HEATING WATER 29</text>
  <text x="   220" y="  2341">COIL HEATING WATER 30</text>
  <text x="   220" y="  2361">COIL HEATING WATER 30</text>
  <text x="   220" y="  2381">COIL HEATING WATER 31</text>
  <text x="   220" y="  2401">COIL HEATING WATER 31</text>
  <text x="   220" y="  2421">COIL HEATING WATER 32</text>
  <text x="   220" y="  2441">COIL HEATING WATER 32</text>
  <text x="   220" y="  2461">COIL HEATING WATER 33</text>
  <text x="   220" y="  2481">COIL HEATING WATER 33</text>
  <text x="   220" y="  2501">COIL HEATING WATER 34</text>
  <text x="   220" y="  2521">COIL HEATING WATER 34</text>
  <text x="   220" y="  2541">COIL HEATING WATER 35</text>
  <text x="   220" y="  2561">COIL HEATING WATER 35</text>
  <text x="   220" y="  2581">COIL HEATING WATER 36</text>
  <text x="   220" y="  2601">COIL HEATING WATER 36</text>
  <text x="   220" y="  2621">COIL HEATING WATER 37</text>
  <text x="   220" y="  2641">COIL HEATING WATER 37</text>
  <text x="   220" y="  2661">COIL HEATING WATER 38</text>
  <text x="   220" y="  2681">COIL HEATING WATER 38</text>
  <text x="   220" y="  2701">COIL HEATING WATER 39</text>
  <text x="   220" y="  2721">COIL HEATING WATER 39</text>
  <text x="   220" y="  2741">COIL HEATING WATER 40</text>
  <text x="   220" y="  2761">COIL HEATING WATER 40</text>
  <text x="   220" y="  2781">COIL HEATING WATER 41</text>
  <text x="   220" y="  2801">COIL HEATING WATER 41</text>
  <text x="   220" y="  2821">COIL HEATING WATER 42</text>
  <text x="   220" y="  2841">COIL HEATING WATER 42</text>
  <text x="   220" y="  2861">COIL HEATING WATER 43</text>
  <text x="   220" y="  2881">COIL HEATING WATER 43</text>
  <text x="   220" y="  2901">COIL HEATING WATER 44</text>
  <text x="   220" y="  2921">COIL HEATING WATER 44</text>
  <text x="   220" y="  2941">COIL HEATING WATER 45</text>
  <text x="   220" y="  2961">COIL HEATING WATER 45</text>
  <text x="   220" y="  2981">COIL HEATING WATER 46</text>
  <text x="   220" y="  3001">COIL HEATING WATER 46</text>
  <text x="   220" y="  3021">COIL HEATING WATER 47</text>
  <text x="   220" y="  3041">COIL HEATING WATER 47</text>
  <text x="   220" y="  3061">AIR TERMINAL SINGLE DUCT VAV REHEAT 3</text>
  <text x="   220" y="  3081">AIR TERMINAL SINGLE DUCT VAV REHEAT 4</text>
  <text x="   220" y="  3101">AIR TERMINAL SINGLE DUCT VAV REHEAT 5</text>
  <text x="   220" y="  3121">AIR TERMINAL SINGLE DUCT VAV REHEAT 6</text>
  <text x="   220" y="  3141">AIR TERMINAL SINGLE DUCT VAV REHEAT 7</text>
  <text x="   220" y="  3161">AIR TERMINAL SINGLE DUCT VAV REHEAT 8</text>
  <text x="   220" y="  3181">AIR TERMINAL SINGLE DUCT VAV REHEAT 9</text>
  <text x="   220" y="  3201">AIR TERMINAL SINGLE DUCT VAV REHEAT 10</text>
  <text x="   220" y="  3221">AIR TERMINAL SINGLE DUCT VAV REHEAT 11</text>
  <text x="   220" y="  3241">AIR TERMINAL SINGLE DUCT VAV REHEAT 12</text>
  <text x="   220" y="  3261">AIR TERMINAL SINGLE DUCT VAV REHEAT 13</text>
  <text x="   220" y="  3281">AIR TERMINAL SINGLE DUCT VAV REHEAT 14</text>
  <text x="   220" y="  3301">AIR TERMINAL SINGLE DUCT VAV REHEAT 15</text>
  <text x="   220" y="  3321">AIR TERMINAL SINGLE DUCT VAV REHEAT 16</text>
  <text x="   220" y="  3341">AIR TERMINAL SINGLE DUCT VAV REHEAT 17</text>
  <text x="   220" y="  3361">AIR TERMINAL SINGLE DUCT VAV REHEAT 18</text>
  <text x="   220" y="  3381">AIR TERMINAL SINGLE DUCT VAV REHEAT 19</text>
  <text x="   220" y="  3401">AIR TERMINAL SINGLE DUCT VAV REHEAT 20</text>
  <text x="   220" y="  3421">AIR TERMINAL SINGLE DUCT VAV REHEAT 21</text>
  <text x="   220" y="  3441">AIR TERMINAL SINGLE DUCT VAV REHEAT 22</text>
  <text x="   220" y="  3461">AIR TERMINAL SINGLE DUCT VAV REHEAT 23</text>
  <text x="   220" y="  3481">AIR TERMINAL SINGLE DUCT VAV REHEAT 24</text>
  <text x="   220" y="  3501">AIR TERMINAL SINGLE DUCT VAV REHEAT 25</text>
  <text x="   220" y="  3521">AIR TERMINAL SINGLE DUCT VAV REHEAT 26</text>
  <text x="   220" y="  3541">AIR TERMINAL SINGLE DUCT VAV REHEAT 27</text>
  <text x="   220" y="  3561">AIR TERMINAL SINGLE DUCT VAV REHEAT 28</text>
  <text x="   220" y="  3581">AIR TERMINAL SINGLE DUCT VAV REHEAT 29</text>
  <text x="   220" y="  3601">AIR TERMINAL SINGLE DUCT VAV REHEAT 30</text>
  <text x="   220" y="  3621">AIR TERMINAL SINGLE DUCT VAV REHEAT 31</text>
  <text x="   220" y="  3641">AIR TERMINAL SINGLE DUCT VAV REHEAT 32</text>
  <text x="   220" y="  3661">AIR TERMINAL SINGLE DUCT VAV REHEAT 33</text>
  <text x="   220" y="  3681">AIR TERMINAL SINGLE DUCT VAV REHEAT 34</text>
  <text x="   220" y="  3701">AIR TERMINAL SINGLE DUCT VAV REHEAT 35</text>
  <text x="   220" y="  3721">AIR TERMINAL SINGLE DUCT VAV REHEAT 36</text>
  <text x="   220" y="  3741">AIR TERMINAL SINGLE DUCT VAV REHEAT 37</text>
  <text x="   220" y="  3761">AIR TERMINAL SINGLE DUCT VAV REHEAT 38</text>
  <text x="   220" y="  3781">AIR TERMINAL SINGLE DUCT VAV REHEAT 39</text>
  <text x="   220" y="  3801">AIR TERMINAL SINGLE DUCT VAV REHEAT 40</text>
  <text x="   220" y="  3821">AIR TERMINAL SINGLE DUCT VAV REHEAT 41</text>
  <text x="   220" y="  3841">AIR TERMINAL SINGLE DUCT VAV REHEAT 42</text>
  <text x="   220" y="  3861">AIR TERMINAL SINGLE DUCT VAV REHEAT 43</text>
  <text x="   220" y="  3881">AIR TERMINAL SINGLE DUCT VAV REHEAT 44</text>
  <text x="   220" y="  3901">AIR TERMINAL SINGLE DUCT VAV REHEAT 45</text>
  <text x="   220" y="  3921">AIR TERMINAL SINGLE DUCT VAV REHEAT 46</text>
  <text x="   220" y="  3941">AIR LOOP HVAC ZONE MIXER 1</text>
  <text x="   220" y="  3961">CONTROLLER WATER COIL 1</text>
  <text x="   220" y="  3981">CONTROLLER OUTDOOR AIR 1</text>
  <text x="   220" y="  4001">THERMAL ZONE 20</text>
  <text x="   220" y="  4021">THERMAL ZONE 39</text>
  <text x="   220" y="  4041">THERMAL ZONE 6</text>
  <text x="   220" y="  4061">THERMAL ZONE 40</text>
  <text x="   220" y="  4081">THERMAL ZONE 1</text>
  <text x="   220" y="  4101">THERMAL ZONE 2</text>
  <text x="   220" y="  4121">THERMAL ZONE 23</text>
  <text x="   220" y="  4141">THERMAL ZONE 25</text>
  <text x="   220" y="  4161">THERMAL ZONE 28</text>
  <text x="   220" y="  4181">THERMAL ZONE 30</text>
  <text x="   220" y="  4201">THERMAL ZONE 13</text>
  <text x="   220" y="  4221">THERMAL ZONE 35</text>
  <text x="   220" y="  4241">THERMAL ZONE 36</text>
  <text x="   220" y="  4261">THERMAL ZONE 15</text>
  <text x="   220" y="  4281">THERMAL ZONE 29</text>
  <text x="   220" y="  4301">THERMAL ZONE 22</text>
  <text x="   220" y="  4321">THERMAL ZONE 14</text>
  <text x="   220" y="  4341">THERMAL ZONE 7</text>
  <text x="   220" y="  4361">THERMAL ZONE 9</text>
  <text x="   220" y="  4381">THERMAL ZONE 4</text>
  <text x="   220" y="  4401">THERMAL ZONE 41</text>
  <text x="   220" y="  4421">THERMAL ZONE 45</text>
  <text x="   220" y="  4441">THERMAL ZONE 31</text>
  <text x="   220" y="  4461">THERMAL ZONE 11</text>
  <text x="   220" y="  4481">THERMAL ZONE 42</text>
  <text x="   220" y="  4501">THERMAL ZONE 21</text>
  <text x="   220" y="  4521">THERMAL ZONE 16</text>
  <text x="   220" y="  4541">THERMAL ZONE 33</text>
  <text x="   220" y="  4561">THERMAL ZONE 17</text>
  <text x="   220" y="  4581">THERMAL ZONE 38</text>
  <text x="   220" y="  4601">THERMAL ZONE 27</text>
  <text x="   220" y="  4621">THERMAL ZONE 24</text>
  <text x="   220" y="  4641">THERMAL ZONE 26</text>
  <text x="   220" y="  4661">THERMAL ZONE 19</text>
  <text x="   220" y="  4681">THERMAL ZONE 8</text>
  <text x="   220" y="  4701">THERMAL ZONE 18</text>
  <text x="   220" y="  4721">THERMAL ZONE 37</text>
  <text x="   220" y="  4741">THERMAL ZONE 3</text>
  <text x="   220" y="  4761">THERMAL ZONE 43</text>
  <text x="   220" y="  4781">THERMAL ZONE 5</text>
  <text x="   220" y="  4801">THERMAL ZONE 10</text>
  <text x="   220" y="  4821">THERMAL ZONE 12</text>
  <text x="   220" y="  4841">THERMAL ZONE 34</text>
  <text x="   220" y="  4861">THERMAL ZONE 44</text>
  <text x="   200" y="  4901">
The following are not supported: objects related to controls, AirTerminal:SingleDuct:Uncontrolled, or ZoneHVAC:IdealLoadsAirSystem</text>
</g>
</svg>
