<?xml version="1.0"?>
<svg width="250mm" height="200mm" viewBox="0 0   3200    1500"
     xmlns="http://www.w3.org/2000/svg"
     xmlns:xlink="http://www.w3.org/1999/xlink"
     xmlns:ev="http://www.w3.org/2001/xml-events">
<g font-family="Verdana" font-size="8" >
  <line x1="  2400" y1="   310" x2="   900" y2="    30" style = "stroke:silver  ;"/>
  <line x1="  2400" y1="   350" x2="  2100" y2="    30" style = "stroke:silver  ;"/>
  <line x1="  2400" y1="   390" x2="  2100" y2="    70" style = "stroke:silver  ;"/>
  <line x1="  2400" y1="   430" x2="  2100" y2="   110" style = "stroke:silver  ;"/>
  <line x1="  2400" y1="   470" x2="  2100" y2="   150" style = "stroke:silver  ;"/>
  <line x1="  2400" y1="   510" x2="  2100" y2="   190" style = "stroke:silver  ;"/>
  <rect x="   200" y="   620" width="   200" height="    20" style = "fill:snow; stroke: Black;"/>     1
  <text x="   202" y="   633">OutdoorAir:NodeList</text>
  <rect x="  2000" y="   300" width="   200" height="    20" style = "fill:wheat; stroke: Black;"/>     7
  <text x="  2002" y="   313">PLANT LOOP 1 DEMAND SPLITTER</text>
  <rect x="  2600" y="   540" width="   200" height="    20" style = "fill:wheat; stroke: Black;"/>     8
  <text x="  2602" y="   553">PLANT LOOP 1 DEMAND MIXER</text>
  <rect x="   500" y="   260" width="   200" height="    20" style = "fill:wheat; stroke: Black;"/>     9
  <text x="   502" y="   273">PLANT LOOP 1 SUPPLY SPLITTER</text>
  <rect x="  1100" y="   300" width="   200" height="    20" style = "fill:wheat; stroke: Black;"/>    10
  <text x="  1102" y="   313">PLANT LOOP 1 SUPPLY MIXER</text>
  <rect x="  2300" y="   180" width="   200" height="    20" style = "fill:chartreuse; stroke: Black;"/>    11
  <text x="  2302" y="   193">THERMAL ZONE 4</text>
  <rect x="  1400" y="    20" width="   200" height="    20" style = "fill:wheat; stroke: Black;"/>    16
  <text x="  1402" y="    33">AIR LOOP HVAC ZONE SPLITTER 1</text>
  <rect x="  1700" y="    20" width="   200" height="    20" style = "fill:wheat; stroke: Black;"/>    17
  <text  x="  1702" y="    28">AIR TERMINAL SINGLE DUCT VAV REHEAT
  <tspan x="  1702" y="    36">2</tspan></text>
  <rect x="  2300" y="   300" width="   200" height="    20" style = "fill:salmon; stroke: Black;"/>    18
  <text x="  2302" y="   313">COIL HEATING WATER 1</text>
  <rect x="   800" y="    20" width="   200" height="    20" style = "fill:salmon; stroke: Black;"/>    19
  <text x="   802" y="    33">COIL HEATING WATER 1</text>
  <rect x="  2300" y="   340" width="   200" height="    20" style = "fill:salmon; stroke: Black;"/>    20
  <text x="  2302" y="   353">COIL HEATING WATER 3</text>
  <rect x="  2000" y="    20" width="   200" height="    20" style = "fill:salmon; stroke: Black;"/>    21
  <text x="  2002" y="    33">COIL HEATING WATER 3</text>
  <rect x="  2300" y="   380" width="   200" height="    20" style = "fill:salmon; stroke: Black;"/>    22
  <text x="  2302" y="   393">COIL HEATING WATER 4</text>
  <rect x="  2000" y="    60" width="   200" height="    20" style = "fill:salmon; stroke: Black;"/>    23
  <text x="  2002" y="    73">COIL HEATING WATER 4</text>
  <rect x="  2300" y="   420" width="   200" height="    20" style = "fill:salmon; stroke: Black;"/>    24
  <text x="  2302" y="   433">COIL HEATING WATER 5</text>
  <rect x="  2000" y="   100" width="   200" height="    20" style = "fill:salmon; stroke: Black;"/>    25
  <text x="  2002" y="   113">COIL HEATING WATER 5</text>
  <rect x="  2300" y="   460" width="   200" height="    20" style = "fill:salmon; stroke: Black;"/>    26
  <text x="  2302" y="   473">COIL HEATING WATER 6</text>
  <rect x="  2000" y="   140" width="   200" height="    20" style = "fill:salmon; stroke: Black;"/>    27
  <text x="  2002" y="   153">COIL HEATING WATER 6</text>
  <rect x="  2300" y="   500" width="   200" height="    20" style = "fill:salmon; stroke: Black;"/>    28
  <text x="  2302" y="   513">COIL HEATING WATER 7</text>
  <rect x="  2000" y="   180" width="   200" height="    20" style = "fill:salmon; stroke: Black;"/>    29
  <text x="  2002" y="   193">COIL HEATING WATER 7</text>
  <rect x="  1700" y="    60" width="   200" height="    20" style = "fill:wheat; stroke: Black;"/>    30
  <text  x="  1702" y="    68">AIR TERMINAL SINGLE DUCT VAV REHEAT
  <tspan x="  1702" y="    76">3</tspan></text>
  <rect x="  1700" y="   100" width="   200" height="    20" style = "fill:wheat; stroke: Black;"/>    31
  <text  x="  1702" y="   108">AIR TERMINAL SINGLE DUCT VAV REHEAT
  <tspan x="  1702" y="   116">4</tspan></text>
  <rect x="  1700" y="   140" width="   200" height="    20" style = "fill:wheat; stroke: Black;"/>    32
  <text  x="  1702" y="   148">AIR TERMINAL SINGLE DUCT VAV REHEAT
  <tspan x="  1702" y="   156">5</tspan></text>
  <rect x="  1700" y="   180" width="   200" height="    20" style = "fill:wheat; stroke: Black;"/>    33
  <text  x="  1702" y="   188">AIR TERMINAL SINGLE DUCT VAV REHEAT
  <tspan x="  1702" y="   196">6</tspan></text>
  <rect x="  2600" y="   180" width="   200" height="    20" style = "fill:wheat; stroke: Black;"/>    34
  <text x="  2602" y="   193">AIR LOOP HVAC ZONE MIXER 1</text>
  <rect x="   200" y="    20" width="   200" height="    20" style = "fill:lawngreen; stroke: Black;"/>    35
  <text  x="   202" y="    28">OUTDOORAIR:MIXER
  <tspan x="   202" y="    36">{9817EF02-AFC0-45B2-BD1D-7EF242C3435B}</tspan></text>
  <rect x="   500" y="    20" width="   200" height="    20" style = "fill:skyblue; stroke: Black;"/>    38
  <text x="   502" y="    33">COIL COOLING DX TWO SPEED 1</text>
  <rect x="  1100" y="    20" width="   200" height="    20" style = "fill:silver; stroke: Black;"/>    39
  <text x="  1102" y="    33">FAN VARIABLE VOLUME 1</text>
  <rect x="   800" y="   300" width="   200" height="    20" style = "fill:wheat; stroke: Black;"/>    40
  <text x="   802" y="   313">PIPE ADIABATIC 1</text>
  <rect x="  1400" y="   300" width="   200" height="    20" style = "fill:wheat; stroke: Black;"/>    41
  <text x="  1402" y="   313">PIPE ADIABATIC 2</text>
  <rect x="  1700" y="   300" width="   200" height="    20" style = "fill:wheat; stroke: Black;"/>    42
  <text x="  1702" y="   313">PLANT LOOP 1 DEMAND INLET PIPE</text>
  <rect x="  2300" y="   540" width="   200" height="    20" style = "fill:wheat; stroke: Black;"/>    43
  <text x="  2302" y="   553">PLANT LOOP 1 DEMAND BYPASS PIPE</text>
  <rect x="  2900" y="   540" width="   200" height="    20" style = "fill:wheat; stroke: Black;"/>    44
  <text x="  2902" y="   553">PLANT LOOP 1 DEMAND OUTLET PIPE</text>
  <rect x="   800" y="   260" width="   200" height="    20" style = "fill:indianred; stroke: Black;"/>    45
  <text x="   802" y="   273">BOILER HOT WATER 1</text>
  <rect x="   200" y="   260" width="   200" height="    20" style = "fill:springgreen; stroke: Black;"/>    46
  <text x="   202" y="   273">PUMP VARIABLE SPEED 1</text>
  <rect x="  2300" y="    20" width="   200" height="    20" style = "fill:chartreuse; stroke: Black;"/>    47
  <text x="  2302" y="    33">THERMAL ZONE 1</text>
  <rect x="  2300" y="    60" width="   200" height="    20" style = "fill:chartreuse; stroke: Black;"/>    48
  <text x="  2302" y="    73">THERMAL ZONE 5</text>
  <rect x="  2300" y="   100" width="   200" height="    20" style = "fill:chartreuse; stroke: Black;"/>    49
  <text x="  2302" y="   113">THERMAL ZONE 3</text>
  <rect x="  2300" y="   140" width="   200" height="    20" style = "fill:chartreuse; stroke: Black;"/>    50
  <text x="  2302" y="   153">THERMAL ZONE 2</text>
  <line x1="  2200" y1="   310" x2="  2300" y2="   310" style = "stroke: Black;"/>
  <line x1="  2200" y1="   310" x2="  2300" y2="   350" style = "stroke: Black;"/>
  <line x1="  2200" y1="   310" x2="  2300" y2="   390" style = "stroke: Black;"/>
  <line x1="  2200" y1="   310" x2="  2300" y2="   430" style = "stroke: Black;"/>
  <line x1="  2200" y1="   310" x2="  2300" y2="   470" style = "stroke: Black;"/>
  <line x1="  2200" y1="   310" x2="  2300" y2="   510" style = "stroke: Black;"/>
  <line x1="  2200" y1="   310" x2="  2300" y2="   550" style = "stroke: Black;"/>
  <line x1="  2800" y1="   550" x2="  2900" y2="   550" style = "stroke: Black;"/>
  <line x1="   700" y1="   270" x2="   800" y2="   270" style = "stroke: Black;"/>
  <line x1="   700" y1="   270" x2="   800" y2="   310" style = "stroke: Black;"/>
  <line x1="  1300" y1="   310" x2="  1400" y2="   310" style = "stroke: Black;"/>
  <line x1="  1600" y1="    30" x2="  1700" y2="    30" style = "stroke: Black;"/>
  <line x1="  1600" y1="    30" x2="  1700" y2="    70" style = "stroke: Black;"/>
  <line x1="  1600" y1="    30" x2="  1700" y2="   110" style = "stroke: Black;"/>
  <line x1="  1600" y1="    30" x2="  1700" y2="   150" style = "stroke: Black;"/>
  <line x1="  1600" y1="    30" x2="  1700" y2="   190" style = "stroke: Black;"/>
  <line x1="  1900" y1="    30" x2="  2000" y2="    30" style = "stroke: Black;"/>
  <line x1="  2500" y1="   310" x2="  2600" y2="   550" style = "stroke: Black;"/>
  <line x1="  1000" y1="    30" x2="  1100" y2="    30" style = "stroke: Black;"/>
  <line x1="  2500" y1="   350" x2="  2600" y2="   550" style = "stroke: Black;"/>
  <line x1="  2200" y1="    30" x2="  2300" y2="    30" style = "stroke: Black;"/>
  <line x1="  2500" y1="   390" x2="  2600" y2="   550" style = "stroke: Black;"/>
  <line x1="  2200" y1="    70" x2="  2300" y2="    70" style = "stroke: Black;"/>
  <line x1="  2500" y1="   430" x2="  2600" y2="   550" style = "stroke: Black;"/>
  <line x1="  2200" y1="   110" x2="  2300" y2="   110" style = "stroke: Black;"/>
  <line x1="  2500" y1="   470" x2="  2600" y2="   550" style = "stroke: Black;"/>
  <line x1="  2200" y1="   150" x2="  2300" y2="   150" style = "stroke: Black;"/>
  <line x1="  2500" y1="   510" x2="  2600" y2="   550" style = "stroke: Black;"/>
  <line x1="  2200" y1="   190" x2="  2300" y2="   190" style = "stroke: Black;"/>
  <line x1="  1900" y1="    70" x2="  2000" y2="    70" style = "stroke: Black;"/>
  <line x1="  1900" y1="   110" x2="  2000" y2="   110" style = "stroke: Black;"/>
  <line x1="  1900" y1="   150" x2="  2000" y2="   150" style = "stroke: Black;"/>
  <line x1="  1900" y1="   190" x2="  2000" y2="   190" style = "stroke: Black;"/>
  <line x1="   400" y1="    30" x2="   500" y2="    30" style = "stroke: Black;"/>
  <line x1="   700" y1="    30" x2="   800" y2="    30" style = "stroke: Black;"/>
  <line x1="  1300" y1="    30" x2="  1400" y2="    30" style = "stroke: Black;"/>
  <line x1="  1000" y1="   310" x2="  1100" y2="   310" style = "stroke: Black;"/>
  <line x1="  1600" y1="   310" x2="  1700" y2="   310" style = "stroke: Black;"/>
  <line x1="  1900" y1="   310" x2="  2000" y2="   310" style = "stroke: Black;"/>
  <line x1="  2500" y1="   550" x2="  2600" y2="   550" style = "stroke: Black;"/>
  <line x1="  1000" y1="   270" x2="  1100" y2="   310" style = "stroke: Black;"/>
  <line x1="   400" y1="   270" x2="   500" y2="   270" style = "stroke: Black;"/>
  <line x1="  2500" y1="   190" x2="  2600" y2="   190" style = "stroke: Black;"/>
  <line x1="  2500" y1="    30" x2="  2600" y2="   190" style = "stroke: Black;"/>
  <line x1="  2500" y1="    70" x2="  2600" y2="   190" style = "stroke: Black;"/>
  <line x1="  2500" y1="   110" x2="  2600" y2="   190" style = "stroke: Black;"/>
  <line x1="  2500" y1="   150" x2="  2600" y2="   190" style = "stroke: Black;"/>
  <line x1="   200" y1="    30" x2="   175" y2="    30" style = "stroke: Black;"/>
  <line x1="   175" y1="    30" x2="   175" y2="     0" style = "stroke: Black;"/>
  <line x1="   175" y1="     0" x2="  2825" y2="     0" style = "stroke: Black;"/>
  <line x1="  2825" y1="     0" x2="  2825" y2="   190" style = "stroke: Black;"/>
  <line x1="  2825" y1="   190" x2="  2800" y2="   190" style = "stroke: Black;"/>
  <line x1="   200" y1="   270" x2="   175" y2="   270" style = "stroke: Black;"/>
  <line x1="   175" y1="   270" x2="   175" y2="   240" style = "stroke: Black;"/>
  <line x1="   175" y1="   240" x2="  3125" y2="   240" style = "stroke: Black;"/>
  <line x1="  3125" y1="   240" x2="  3125" y2="   550" style = "stroke: Black;"/>
  <line x1="  3125" y1="   550" x2="  3100" y2="   550" style = "stroke: Black;"/>
  <text x="   200" y="   680">Unused Non-Parent Objects:</text>
  <text x="   220" y="   700">SETPOINT MANAGER SCHEDULED 1</text>
  <text x="   220" y="   720">SETPOINT MANAGER SCHEDULED 2</text>
  <text x="   220" y="   740">SETPOINT MANAGER MIXED AIR 3</text>
  <text x="   220" y="   760">SETPOINT MANAGER MIXED AIR 2</text>
  <text x="   220" y="   780">SETPOINT MANAGER MIXED AIR 1</text>
  <text x="   220" y="   800">CONTROLLER WATER COIL 1</text>
  <text x="   220" y="   820">CONTROLLER OUTDOOR AIR 1</text>
  <text x="   200" y="   860">
The following are not supported: objects related to controls, AirTerminal:SingleDuct:Uncontrolled, or ZoneHVAC:IdealLoadsAirSystem</text>
</g>
</svg>
