<?xml version="1.0"?>
<svg width="250mm" height="200mm" viewBox="0 0   4100    1840"
     xmlns="http://www.w3.org/2000/svg"
     xmlns:xlink="http://www.w3.org/1999/xlink"
     xmlns:ev="http://www.w3.org/2001/xml-events">
<g font-family="Verdana" font-size="8" >
  <line x1="  3100" y1="   910" x2="  1100" y2="    30" style = "stroke:silver  ;"/>
  <line x1="  3100" y1="   950" x2="  2700" y2="    30" style = "stroke:silver  ;"/>
  <line x1="  3100" y1="   990" x2="  2700" y2="    70" style = "stroke:silver  ;"/>
  <line x1="  3100" y1="  1030" x2="  2700" y2="   110" style = "stroke:silver  ;"/>
  <line x1="  3100" y1="  1070" x2="  2700" y2="   150" style = "stroke:silver  ;"/>
  <line x1="  3100" y1="  1110" x2="  2700" y2="   190" style = "stroke:silver  ;"/>
  <line x1="  3100" y1="  1150" x2="  2700" y2="   230" style = "stroke:silver  ;"/>
  <line x1="  3100" y1="  1190" x2="  2700" y2="   270" style = "stroke:silver  ;"/>
  <line x1="  3100" y1="  1230" x2="  2700" y2="   310" style = "stroke:silver  ;"/>
  <line x1="  3100" y1="  1270" x2="  2700" y2="   350" style = "stroke:silver  ;"/>
  <line x1="  3100" y1="  1310" x2="  2700" y2="   390" style = "stroke:silver  ;"/>
  <line x1="  3100" y1="  1350" x2="  2700" y2="   430" style = "stroke:silver  ;"/>
  <line x1="  3100" y1="  1390" x2="  2700" y2="   470" style = "stroke:silver  ;"/>
  <line x1="  3100" y1="  1430" x2="  2700" y2="   510" style = "stroke:silver  ;"/>
  <line x1="  3100" y1="  1470" x2="  2700" y2="   550" style = "stroke:silver  ;"/>
  <line x1="  3100" y1="  1510" x2="  2700" y2="   590" style = "stroke:silver  ;"/>
  <line x1="  3100" y1="  1550" x2="  2700" y2="   630" style = "stroke:silver  ;"/>
  <line x1="  3100" y1="  1590" x2="  2700" y2="   670" style = "stroke:silver  ;"/>
  <line x1="  3100" y1="  1630" x2="  2700" y2="   710" style = "stroke:silver  ;"/>
  <line x1="  3100" y1="  1670" x2="  2700" y2="   750" style = "stroke:silver  ;"/>
  <line x1="  3100" y1="  1710" x2="  2700" y2="   790" style = "stroke:silver  ;"/>
  <rect x="   200" y="  1820" width="   200" height="    20" style = "fill:snow; stroke: Black;"/>     1
  <text x="   202" y="  1833">OutdoorAir:NodeList</text>
  <rect x="  2600" y="   900" width="   200" height="    20" style = "fill:wheat; stroke: Black;"/>     7
  <text x="  2602" y="   913">PLANT LOOP 1 DEMAND SPLITTER</text>
  <rect x="  3400" y="  1740" width="   200" height="    20" style = "fill:wheat; stroke: Black;"/>     8
  <text x="  3402" y="  1753">PLANT LOOP 1 DEMAND MIXER</text>
  <rect x="   600" y="   860" width="   200" height="    20" style = "fill:wheat; stroke: Black;"/>     9
  <text x="   602" y="   873">PLANT LOOP 1 SUPPLY SPLITTER</text>
  <rect x="  1400" y="   900" width="   200" height="    20" style = "fill:wheat; stroke: Black;"/>    10
  <text x="  1402" y="   913">PLANT LOOP 1 SUPPLY MIXER</text>
  <rect x="  3000" y="   420" width="   200" height="    20" style = "fill:chartreuse; stroke: Black;"/>    11
  <text x="  3002" y="   433">THERMAL ZONE 8</text>
  <rect x="  1800" y="    20" width="   200" height="    20" style = "fill:wheat; stroke: Black;"/>    31
  <text x="  1802" y="    33">AIR LOOP HVAC ZONE SPLITTER 1</text>
  <rect x="  2200" y="    20" width="   200" height="    20" style = "fill:wheat; stroke: Black;"/>    32
  <text  x="  2202" y="    28">AIR TERMINAL SINGLE DUCT VAV REHEAT
  <tspan x="  2202" y="    36">2</tspan></text>
  <rect x="  3000" y="   900" width="   200" height="    20" style = "fill:salmon; stroke: Black;"/>    33
  <text x="  3002" y="   913">COIL HEATING WATER 1</text>
  <rect x="  1000" y="    20" width="   200" height="    20" style = "fill:salmon; stroke: Black;"/>    34
  <text x="  1002" y="    33">COIL HEATING WATER 1</text>
  <rect x="  3000" y="   940" width="   200" height="    20" style = "fill:salmon; stroke: Black;"/>    35
  <text x="  3002" y="   953">COIL HEATING WATER 3</text>
  <rect x="  2600" y="    20" width="   200" height="    20" style = "fill:salmon; stroke: Black;"/>    36
  <text x="  2602" y="    33">COIL HEATING WATER 3</text>
  <rect x="  3000" y="   980" width="   200" height="    20" style = "fill:salmon; stroke: Black;"/>    37
  <text x="  3002" y="   993">COIL HEATING WATER 4</text>
  <rect x="  2600" y="    60" width="   200" height="    20" style = "fill:salmon; stroke: Black;"/>    38
  <text x="  2602" y="    73">COIL HEATING WATER 4</text>
  <rect x="  3000" y="  1020" width="   200" height="    20" style = "fill:salmon; stroke: Black;"/>    39
  <text x="  3002" y="  1033">COIL HEATING WATER 5</text>
  <rect x="  2600" y="   100" width="   200" height="    20" style = "fill:salmon; stroke: Black;"/>    40
  <text x="  2602" y="   113">COIL HEATING WATER 5</text>
  <rect x="  3000" y="  1060" width="   200" height="    20" style = "fill:salmon; stroke: Black;"/>    41
  <text x="  3002" y="  1073">COIL HEATING WATER 6</text>
  <rect x="  2600" y="   140" width="   200" height="    20" style = "fill:salmon; stroke: Black;"/>    42
  <text x="  2602" y="   153">COIL HEATING WATER 6</text>
  <rect x="  3000" y="  1100" width="   200" height="    20" style = "fill:salmon; stroke: Black;"/>    43
  <text x="  3002" y="  1113">COIL HEATING WATER 7</text>
  <rect x="  2600" y="   180" width="   200" height="    20" style = "fill:salmon; stroke: Black;"/>    44
  <text x="  2602" y="   193">COIL HEATING WATER 7</text>
  <rect x="  3000" y="  1140" width="   200" height="    20" style = "fill:salmon; stroke: Black;"/>    45
  <text x="  3002" y="  1153">COIL HEATING WATER 8</text>
  <rect x="  2600" y="   220" width="   200" height="    20" style = "fill:salmon; stroke: Black;"/>    46
  <text x="  2602" y="   233">COIL HEATING WATER 8</text>
  <rect x="  3000" y="  1180" width="   200" height="    20" style = "fill:salmon; stroke: Black;"/>    47
  <text x="  3002" y="  1193">COIL HEATING WATER 9</text>
  <rect x="  2600" y="   260" width="   200" height="    20" style = "fill:salmon; stroke: Black;"/>    48
  <text x="  2602" y="   273">COIL HEATING WATER 9</text>
  <rect x="  3000" y="  1220" width="   200" height="    20" style = "fill:salmon; stroke: Black;"/>    49
  <text x="  3002" y="  1233">COIL HEATING WATER 10</text>
  <rect x="  2600" y="   300" width="   200" height="    20" style = "fill:salmon; stroke: Black;"/>    50
  <text x="  2602" y="   313">COIL HEATING WATER 10</text>
  <rect x="  3000" y="  1260" width="   200" height="    20" style = "fill:salmon; stroke: Black;"/>    51
  <text x="  3002" y="  1273">COIL HEATING WATER 11</text>
  <rect x="  2600" y="   340" width="   200" height="    20" style = "fill:salmon; stroke: Black;"/>    52
  <text x="  2602" y="   353">COIL HEATING WATER 11</text>
  <rect x="  3000" y="  1300" width="   200" height="    20" style = "fill:salmon; stroke: Black;"/>    53
  <text x="  3002" y="  1313">COIL HEATING WATER 12</text>
  <rect x="  2600" y="   380" width="   200" height="    20" style = "fill:salmon; stroke: Black;"/>    54
  <text x="  2602" y="   393">COIL HEATING WATER 12</text>
  <rect x="  3000" y="  1340" width="   200" height="    20" style = "fill:salmon; stroke: Black;"/>    55
  <text x="  3002" y="  1353">COIL HEATING WATER 13</text>
  <rect x="  2600" y="   420" width="   200" height="    20" style = "fill:salmon; stroke: Black;"/>    56
  <text x="  2602" y="   433">COIL HEATING WATER 13</text>
  <rect x="  3000" y="  1380" width="   200" height="    20" style = "fill:salmon; stroke: Black;"/>    57
  <text x="  3002" y="  1393">COIL HEATING WATER 14</text>
  <rect x="  2600" y="   460" width="   200" height="    20" style = "fill:salmon; stroke: Black;"/>    58
  <text x="  2602" y="   473">COIL HEATING WATER 14</text>
  <rect x="  3000" y="  1420" width="   200" height="    20" style = "fill:salmon; stroke: Black;"/>    59
  <text x="  3002" y="  1433">COIL HEATING WATER 15</text>
  <rect x="  2600" y="   500" width="   200" height="    20" style = "fill:salmon; stroke: Black;"/>    60
  <text x="  2602" y="   513">COIL HEATING WATER 15</text>
  <rect x="  3000" y="  1460" width="   200" height="    20" style = "fill:salmon; stroke: Black;"/>    61
  <text x="  3002" y="  1473">COIL HEATING WATER 16</text>
  <rect x="  2600" y="   540" width="   200" height="    20" style = "fill:salmon; stroke: Black;"/>    62
  <text x="  2602" y="   553">COIL HEATING WATER 16</text>
  <rect x="  3000" y="  1500" width="   200" height="    20" style = "fill:salmon; stroke: Black;"/>    63
  <text x="  3002" y="  1513">COIL HEATING WATER 17</text>
  <rect x="  2600" y="   580" width="   200" height="    20" style = "fill:salmon; stroke: Black;"/>    64
  <text x="  2602" y="   593">COIL HEATING WATER 17</text>
  <rect x="  3000" y="  1540" width="   200" height="    20" style = "fill:salmon; stroke: Black;"/>    65
  <text x="  3002" y="  1553">COIL HEATING WATER 18</text>
  <rect x="  2600" y="   620" width="   200" height="    20" style = "fill:salmon; stroke: Black;"/>    66
  <text x="  2602" y="   633">COIL HEATING WATER 18</text>
  <rect x="  3000" y="  1580" width="   200" height="    20" style = "fill:salmon; stroke: Black;"/>    67
  <text x="  3002" y="  1593">COIL HEATING WATER 19</text>
  <rect x="  2600" y="   660" width="   200" height="    20" style = "fill:salmon; stroke: Black;"/>    68
  <text x="  2602" y="   673">COIL HEATING WATER 19</text>
  <rect x="  3000" y="  1620" width="   200" height="    20" style = "fill:salmon; stroke: Black;"/>    69
  <text x="  3002" y="  1633">COIL HEATING WATER 20</text>
  <rect x="  2600" y="   700" width="   200" height="    20" style = "fill:salmon; stroke: Black;"/>    70
  <text x="  2602" y="   713">COIL HEATING WATER 20</text>
  <rect x="  3000" y="  1660" width="   200" height="    20" style = "fill:salmon; stroke: Black;"/>    71
  <text x="  3002" y="  1673">COIL HEATING WATER 21</text>
  <rect x="  2600" y="   740" width="   200" height="    20" style = "fill:salmon; stroke: Black;"/>    72
  <text x="  2602" y="   753">COIL HEATING WATER 21</text>
  <rect x="  3000" y="  1700" width="   200" height="    20" style = "fill:salmon; stroke: Black;"/>    73
  <text x="  3002" y="  1713">COIL HEATING WATER 22</text>
  <rect x="  2600" y="   780" width="   200" height="    20" style = "fill:salmon; stroke: Black;"/>    74
  <text x="  2602" y="   793">COIL HEATING WATER 22</text>
  <rect x="  2200" y="    60" width="   200" height="    20" style = "fill:wheat; stroke: Black;"/>    75
  <text  x="  2202" y="    68">AIR TERMINAL SINGLE DUCT VAV REHEAT
  <tspan x="  2202" y="    76">3</tspan></text>
  <rect x="  2200" y="   100" width="   200" height="    20" style = "fill:wheat; stroke: Black;"/>    76
  <text  x="  2202" y="   108">AIR TERMINAL SINGLE DUCT VAV REHEAT
  <tspan x="  2202" y="   116">4</tspan></text>
  <rect x="  2200" y="   140" width="   200" height="    20" style = "fill:wheat; stroke: Black;"/>    77
  <text  x="  2202" y="   148">AIR TERMINAL SINGLE DUCT VAV REHEAT
  <tspan x="  2202" y="   156">5</tspan></text>
  <rect x="  2200" y="   180" width="   200" height="    20" style = "fill:wheat; stroke: Black;"/>    78
  <text  x="  2202" y="   188">AIR TERMINAL SINGLE DUCT VAV REHEAT
  <tspan x="  2202" y="   196">6</tspan></text>
  <rect x="  2200" y="   220" width="   200" height="    20" style = "fill:wheat; stroke: Black;"/>    79
  <text  x="  2202" y="   228">AIR TERMINAL SINGLE DUCT VAV REHEAT
  <tspan x="  2202" y="   236">7</tspan></text>
  <rect x="  2200" y="   260" width="   200" height="    20" style = "fill:wheat; stroke: Black;"/>    80
  <text  x="  2202" y="   268">AIR TERMINAL SINGLE DUCT VAV REHEAT
  <tspan x="  2202" y="   276">8</tspan></text>
  <rect x="  2200" y="   300" width="   200" height="    20" style = "fill:wheat; stroke: Black;"/>    81
  <text  x="  2202" y="   308">AIR TERMINAL SINGLE DUCT VAV REHEAT
  <tspan x="  2202" y="   316">9</tspan></text>
  <rect x="  2200" y="   340" width="   200" height="    20" style = "fill:wheat; stroke: Black;"/>    82
  <text  x="  2202" y="   348">AIR TERMINAL SINGLE DUCT VAV REHEAT
  <tspan x="  2202" y="   356">10</tspan></text>
  <rect x="  2200" y="   380" width="   200" height="    20" style = "fill:wheat; stroke: Black;"/>    83
  <text  x="  2202" y="   388">AIR TERMINAL SINGLE DUCT VAV REHEAT
  <tspan x="  2202" y="   396">11</tspan></text>
  <rect x="  2200" y="   420" width="   200" height="    20" style = "fill:wheat; stroke: Black;"/>    84
  <text  x="  2202" y="   428">AIR TERMINAL SINGLE DUCT VAV REHEAT
  <tspan x="  2202" y="   436">12</tspan></text>
  <rect x="  2200" y="   460" width="   200" height="    20" style = "fill:wheat; stroke: Black;"/>    85
  <text  x="  2202" y="   468">AIR TERMINAL SINGLE DUCT VAV REHEAT
  <tspan x="  2202" y="   476">13</tspan></text>
  <rect x="  2200" y="   500" width="   200" height="    20" style = "fill:wheat; stroke: Black;"/>    86
  <text  x="  2202" y="   508">AIR TERMINAL SINGLE DUCT VAV REHEAT
  <tspan x="  2202" y="   516">14</tspan></text>
  <rect x="  2200" y="   540" width="   200" height="    20" style = "fill:wheat; stroke: Black;"/>    87
  <text  x="  2202" y="   548">AIR TERMINAL SINGLE DUCT VAV REHEAT
  <tspan x="  2202" y="   556">15</tspan></text>
  <rect x="  2200" y="   580" width="   200" height="    20" style = "fill:wheat; stroke: Black;"/>    88
  <text  x="  2202" y="   588">AIR TERMINAL SINGLE DUCT VAV REHEAT
  <tspan x="  2202" y="   596">16</tspan></text>
  <rect x="  2200" y="   620" width="   200" height="    20" style = "fill:wheat; stroke: Black;"/>    89
  <text  x="  2202" y="   628">AIR TERMINAL SINGLE DUCT VAV REHEAT
  <tspan x="  2202" y="   636">17</tspan></text>
  <rect x="  2200" y="   660" width="   200" height="    20" style = "fill:wheat; stroke: Black;"/>    90
  <text  x="  2202" y="   668">AIR TERMINAL SINGLE DUCT VAV REHEAT
  <tspan x="  2202" y="   676">18</tspan></text>
  <rect x="  2200" y="   700" width="   200" height="    20" style = "fill:wheat; stroke: Black;"/>    91
  <text  x="  2202" y="   708">AIR TERMINAL SINGLE DUCT VAV REHEAT
  <tspan x="  2202" y="   716">19</tspan></text>
  <rect x="  2200" y="   740" width="   200" height="    20" style = "fill:wheat; stroke: Black;"/>    92
  <text  x="  2202" y="   748">AIR TERMINAL SINGLE DUCT VAV REHEAT
  <tspan x="  2202" y="   756">20</tspan></text>
  <rect x="  2200" y="   780" width="   200" height="    20" style = "fill:wheat; stroke: Black;"/>    93
  <text  x="  2202" y="   788">AIR TERMINAL SINGLE DUCT VAV REHEAT
  <tspan x="  2202" y="   796">21</tspan></text>
  <rect x="  3400" y="   780" width="   200" height="    20" style = "fill:wheat; stroke: Black;"/>    94
  <text x="  3402" y="   793">AIR LOOP HVAC ZONE MIXER 1</text>
  <rect x="   200" y="    20" width="   200" height="    20" style = "fill:lawngreen; stroke: Black;"/>    95
  <text  x="   202" y="    28">OUTDOORAIR:MIXER
  <tspan x="   202" y="    36">{A416EB82-5031-4311-88DD-44A3A2609FCC}</tspan></text>
  <rect x="   600" y="    20" width="   200" height="    20" style = "fill:skyblue; stroke: Black;"/>    98
  <text x="   602" y="    33">COIL COOLING DX TWO SPEED 1</text>
  <rect x="  1400" y="    20" width="   200" height="    20" style = "fill:silver; stroke: Black;"/>    99
  <text x="  1402" y="    33">FAN VARIABLE VOLUME 1</text>
  <rect x="  1000" y="   900" width="   200" height="    20" style = "fill:wheat; stroke: Black;"/>   100
  <text x="  1002" y="   913">PIPE ADIABATIC 1</text>
  <rect x="  1800" y="   900" width="   200" height="    20" style = "fill:wheat; stroke: Black;"/>   101
  <text x="  1802" y="   913">PIPE ADIABATIC 2</text>
  <rect x="  2200" y="   900" width="   200" height="    20" style = "fill:wheat; stroke: Black;"/>   102
  <text x="  2202" y="   913">PLANT LOOP 1 DEMAND INLET PIPE</text>
  <rect x="  3000" y="  1740" width="   200" height="    20" style = "fill:wheat; stroke: Black;"/>   103
  <text x="  3002" y="  1753">PLANT LOOP 1 DEMAND BYPASS PIPE</text>
  <rect x="  3800" y="  1740" width="   200" height="    20" style = "fill:wheat; stroke: Black;"/>   104
  <text x="  3802" y="  1753">PLANT LOOP 1 DEMAND OUTLET PIPE</text>
  <rect x="  1000" y="   860" width="   200" height="    20" style = "fill:indianred; stroke: Black;"/>   105
  <text x="  1002" y="   873">BOILER HOT WATER 1</text>
  <rect x="   200" y="   860" width="   200" height="    20" style = "fill:springgreen; stroke: Black;"/>   106
  <text x="   202" y="   873">PUMP VARIABLE SPEED 1</text>
  <rect x="  3000" y="    60" width="   200" height="    20" style = "fill:chartreuse; stroke: Black;"/>   107
  <text x="  3002" y="    73">THERMAL ZONE 3</text>
  <rect x="  3000" y="   620" width="   200" height="    20" style = "fill:chartreuse; stroke: Black;"/>   108
  <text x="  3002" y="   633">THERMAL ZONE 7</text>
  <rect x="  3000" y="   500" width="   200" height="    20" style = "fill:chartreuse; stroke: Black;"/>   109
  <text x="  3002" y="   513">THERMAL ZONE 14</text>
  <rect x="  3000" y="   540" width="   200" height="    20" style = "fill:chartreuse; stroke: Black;"/>   110
  <text x="  3002" y="   553">THERMAL ZONE 12</text>
  <rect x="  3000" y="   300" width="   200" height="    20" style = "fill:chartreuse; stroke: Black;"/>   111
  <text x="  3002" y="   313">THERMAL ZONE 2</text>
  <rect x="  3000" y="   740" width="   200" height="    20" style = "fill:chartreuse; stroke: Black;"/>   112
  <text x="  3002" y="   753">THERMAL ZONE 17</text>
  <rect x="  3000" y="   700" width="   200" height="    20" style = "fill:chartreuse; stroke: Black;"/>   113
  <text x="  3002" y="   713">THERMAL ZONE 10</text>
  <rect x="  3000" y="    20" width="   200" height="    20" style = "fill:chartreuse; stroke: Black;"/>   114
  <text x="  3002" y="    33">THERMAL ZONE 19</text>
  <rect x="  3000" y="   340" width="   200" height="    20" style = "fill:chartreuse; stroke: Black;"/>   115
  <text x="  3002" y="   353">THERMAL ZONE 9</text>
  <rect x="  3000" y="   460" width="   200" height="    20" style = "fill:chartreuse; stroke: Black;"/>   116
  <text x="  3002" y="   473">THERMAL ZONE 15</text>
  <rect x="  3000" y="   140" width="   200" height="    20" style = "fill:chartreuse; stroke: Black;"/>   117
  <text x="  3002" y="   153">THERMAL ZONE 5</text>
  <rect x="  3000" y="   100" width="   200" height="    20" style = "fill:chartreuse; stroke: Black;"/>   118
  <text x="  3002" y="   113">THERMAL ZONE 4</text>
  <rect x="  3000" y="   220" width="   200" height="    20" style = "fill:chartreuse; stroke: Black;"/>   119
  <text x="  3002" y="   233">THERMAL ZONE 6</text>
  <rect x="  3000" y="   380" width="   200" height="    20" style = "fill:chartreuse; stroke: Black;"/>   120
  <text x="  3002" y="   393">THERMAL ZONE 13</text>
  <rect x="  3000" y="   660" width="   200" height="    20" style = "fill:chartreuse; stroke: Black;"/>   121
  <text x="  3002" y="   673">THERMAL ZONE 1</text>
  <rect x="  3000" y="   180" width="   200" height="    20" style = "fill:chartreuse; stroke: Black;"/>   122
  <text x="  3002" y="   193">THERMAL ZONE 18</text>
  <rect x="  3000" y="   260" width="   200" height="    20" style = "fill:chartreuse; stroke: Black;"/>   123
  <text x="  3002" y="   273">THERMAL ZONE 11</text>
  <rect x="  3000" y="   780" width="   200" height="    20" style = "fill:chartreuse; stroke: Black;"/>   124
  <text x="  3002" y="   793">THERMAL ZONE 16</text>
  <rect x="  3000" y="   580" width="   200" height="    20" style = "fill:chartreuse; stroke: Black;"/>   125
  <text x="  3002" y="   593">THERMAL ZONE 20</text>
  <line x1="  2800" y1="   910" x2="  3000" y2="   910" style = "stroke: Black;"/>
  <line x1="  2800" y1="   910" x2="  3000" y2="   950" style = "stroke: Black;"/>
  <line x1="  2800" y1="   910" x2="  3000" y2="   990" style = "stroke: Black;"/>
  <line x1="  2800" y1="   910" x2="  3000" y2="  1030" style = "stroke: Black;"/>
  <line x1="  2800" y1="   910" x2="  3000" y2="  1070" style = "stroke: Black;"/>
  <line x1="  2800" y1="   910" x2="  3000" y2="  1110" style = "stroke: Black;"/>
  <line x1="  2800" y1="   910" x2="  3000" y2="  1150" style = "stroke: Black;"/>
  <line x1="  2800" y1="   910" x2="  3000" y2="  1190" style = "stroke: Black;"/>
  <line x1="  2800" y1="   910" x2="  3000" y2="  1230" style = "stroke: Black;"/>
  <line x1="  2800" y1="   910" x2="  3000" y2="  1270" style = "stroke: Black;"/>
  <line x1="  2800" y1="   910" x2="  3000" y2="  1310" style = "stroke: Black;"/>
  <line x1="  2800" y1="   910" x2="  3000" y2="  1350" style = "stroke: Black;"/>
  <line x1="  2800" y1="   910" x2="  3000" y2="  1390" style = "stroke: Black;"/>
  <line x1="  2800" y1="   910" x2="  3000" y2="  1430" style = "stroke: Black;"/>
  <line x1="  2800" y1="   910" x2="  3000" y2="  1470" style = "stroke: Black;"/>
  <line x1="  2800" y1="   910" x2="  3000" y2="  1510" style = "stroke: Black;"/>
  <line x1="  2800" y1="   910" x2="  3000" y2="  1550" style = "stroke: Black;"/>
  <line x1="  2800" y1="   910" x2="  3000" y2="  1590" style = "stroke: Black;"/>
  <line x1="  2800" y1="   910" x2="  3000" y2="  1630" style = "stroke: Black;"/>
  <line x1="  2800" y1="   910" x2="  3000" y2="  1670" style = "stroke: Black;"/>
  <line x1="  2800" y1="   910" x2="  3000" y2="  1710" style = "stroke: Black;"/>
  <line x1="  2800" y1="   910" x2="  3000" y2="  1750" style = "stroke: Black;"/>
  <line x1="  3600" y1="  1750" x2="  3800" y2="  1750" style = "stroke: Black;"/>
  <line x1="   800" y1="   870" x2="  1000" y2="   870" style = "stroke: Black;"/>
  <line x1="   800" y1="   870" x2="  1000" y2="   910" style = "stroke: Black;"/>
  <line x1="  1600" y1="   910" x2="  1800" y2="   910" style = "stroke: Black;"/>
  <line x1="  2000" y1="    30" x2="  2200" y2="    30" style = "stroke: Black;"/>
  <line x1="  2000" y1="    30" x2="  2200" y2="    70" style = "stroke: Black;"/>
  <line x1="  2000" y1="    30" x2="  2200" y2="   110" style = "stroke: Black;"/>
  <line x1="  2000" y1="    30" x2="  2200" y2="   150" style = "stroke: Black;"/>
  <line x1="  2000" y1="    30" x2="  2200" y2="   190" style = "stroke: Black;"/>
  <line x1="  2000" y1="    30" x2="  2200" y2="   230" style = "stroke: Black;"/>
  <line x1="  2000" y1="    30" x2="  2200" y2="   270" style = "stroke: Black;"/>
  <line x1="  2000" y1="    30" x2="  2200" y2="   310" style = "stroke: Black;"/>
  <line x1="  2000" y1="    30" x2="  2200" y2="   350" style = "stroke: Black;"/>
  <line x1="  2000" y1="    30" x2="  2200" y2="   390" style = "stroke: Black;"/>
  <line x1="  2000" y1="    30" x2="  2200" y2="   430" style = "stroke: Black;"/>
  <line x1="  2000" y1="    30" x2="  2200" y2="   470" style = "stroke: Black;"/>
  <line x1="  2000" y1="    30" x2="  2200" y2="   510" style = "stroke: Black;"/>
  <line x1="  2000" y1="    30" x2="  2200" y2="   550" style = "stroke: Black;"/>
  <line x1="  2000" y1="    30" x2="  2200" y2="   590" style = "stroke: Black;"/>
  <line x1="  2000" y1="    30" x2="  2200" y2="   630" style = "stroke: Black;"/>
  <line x1="  2000" y1="    30" x2="  2200" y2="   670" style = "stroke: Black;"/>
  <line x1="  2000" y1="    30" x2="  2200" y2="   710" style = "stroke: Black;"/>
  <line x1="  2000" y1="    30" x2="  2200" y2="   750" style = "stroke: Black;"/>
  <line x1="  2000" y1="    30" x2="  2200" y2="   790" style = "stroke: Black;"/>
  <line x1="  2400" y1="    30" x2="  2600" y2="    30" style = "stroke: Black;"/>
  <line x1="  3200" y1="   910" x2="  3400" y2="  1750" style = "stroke: Black;"/>
  <line x1="  1200" y1="    30" x2="  1400" y2="    30" style = "stroke: Black;"/>
  <line x1="  3200" y1="   950" x2="  3400" y2="  1750" style = "stroke: Black;"/>
  <line x1="  2800" y1="    30" x2="  3000" y2="    30" style = "stroke: Black;"/>
  <line x1="  3200" y1="   990" x2="  3400" y2="  1750" style = "stroke: Black;"/>
  <line x1="  2800" y1="    70" x2="  3000" y2="    70" style = "stroke: Black;"/>
  <line x1="  3200" y1="  1030" x2="  3400" y2="  1750" style = "stroke: Black;"/>
  <line x1="  2800" y1="   110" x2="  3000" y2="   110" style = "stroke: Black;"/>
  <line x1="  3200" y1="  1070" x2="  3400" y2="  1750" style = "stroke: Black;"/>
  <line x1="  2800" y1="   150" x2="  3000" y2="   150" style = "stroke: Black;"/>
  <line x1="  3200" y1="  1110" x2="  3400" y2="  1750" style = "stroke: Black;"/>
  <line x1="  2800" y1="   190" x2="  3000" y2="   190" style = "stroke: Black;"/>
  <line x1="  3200" y1="  1150" x2="  3400" y2="  1750" style = "stroke: Black;"/>
  <line x1="  2800" y1="   230" x2="  3000" y2="   230" style = "stroke: Black;"/>
  <line x1="  3200" y1="  1190" x2="  3400" y2="  1750" style = "stroke: Black;"/>
  <line x1="  2800" y1="   270" x2="  3000" y2="   270" style = "stroke: Black;"/>
  <line x1="  3200" y1="  1230" x2="  3400" y2="  1750" style = "stroke: Black;"/>
  <line x1="  2800" y1="   310" x2="  3000" y2="   310" style = "stroke: Black;"/>
  <line x1="  3200" y1="  1270" x2="  3400" y2="  1750" style = "stroke: Black;"/>
  <line x1="  2800" y1="   350" x2="  3000" y2="   350" style = "stroke: Black;"/>
  <line x1="  3200" y1="  1310" x2="  3400" y2="  1750" style = "stroke: Black;"/>
  <line x1="  2800" y1="   390" x2="  3000" y2="   390" style = "stroke: Black;"/>
  <line x1="  3200" y1="  1350" x2="  3400" y2="  1750" style = "stroke: Black;"/>
  <line x1="  2800" y1="   430" x2="  3000" y2="   430" style = "stroke: Black;"/>
  <line x1="  3200" y1="  1390" x2="  3400" y2="  1750" style = "stroke: Black;"/>
  <line x1="  2800" y1="   470" x2="  3000" y2="   470" style = "stroke: Black;"/>
  <line x1="  3200" y1="  1430" x2="  3400" y2="  1750" style = "stroke: Black;"/>
  <line x1="  2800" y1="   510" x2="  3000" y2="   510" style = "stroke: Black;"/>
  <line x1="  3200" y1="  1470" x2="  3400" y2="  1750" style = "stroke: Black;"/>
  <line x1="  2800" y1="   550" x2="  3000" y2="   550" style = "stroke: Black;"/>
  <line x1="  3200" y1="  1510" x2="  3400" y2="  1750" style = "stroke: Black;"/>
  <line x1="  2800" y1="   590" x2="  3000" y2="   590" style = "stroke: Black;"/>
  <line x1="  3200" y1="  1550" x2="  3400" y2="  1750" style = "stroke: Black;"/>
  <line x1="  2800" y1="   630" x2="  3000" y2="   630" style = "stroke: Black;"/>
  <line x1="  3200" y1="  1590" x2="  3400" y2="  1750" style = "stroke: Black;"/>
  <line x1="  2800" y1="   670" x2="  3000" y2="   670" style = "stroke: Black;"/>
  <line x1="  3200" y1="  1630" x2="  3400" y2="  1750" style = "stroke: Black;"/>
  <line x1="  2800" y1="   710" x2="  3000" y2="   710" style = "stroke: Black;"/>
  <line x1="  3200" y1="  1670" x2="  3400" y2="  1750" style = "stroke: Black;"/>
  <line x1="  2800" y1="   750" x2="  3000" y2="   750" style = "stroke: Black;"/>
  <line x1="  3200" y1="  1710" x2="  3400" y2="  1750" style = "stroke: Black;"/>
  <line x1="  2800" y1="   790" x2="  3000" y2="   790" style = "stroke: Black;"/>
  <line x1="  2400" y1="    70" x2="  2600" y2="    70" style = "stroke: Black;"/>
  <line x1="  2400" y1="   110" x2="  2600" y2="   110" style = "stroke: Black;"/>
  <line x1="  2400" y1="   150" x2="  2600" y2="   150" style = "stroke: Black;"/>
  <line x1="  2400" y1="   190" x2="  2600" y2="   190" style = "stroke: Black;"/>
  <line x1="  2400" y1="   230" x2="  2600" y2="   230" style = "stroke: Black;"/>
  <line x1="  2400" y1="   270" x2="  2600" y2="   270" style = "stroke: Black;"/>
  <line x1="  2400" y1="   310" x2="  2600" y2="   310" style = "stroke: Black;"/>
  <line x1="  2400" y1="   350" x2="  2600" y2="   350" style = "stroke: Black;"/>
  <line x1="  2400" y1="   390" x2="  2600" y2="   390" style = "stroke: Black;"/>
  <line x1="  2400" y1="   430" x2="  2600" y2="   430" style = "stroke: Black;"/>
  <line x1="  2400" y1="   470" x2="  2600" y2="   470" style = "stroke: Black;"/>
  <line x1="  2400" y1="   510" x2="  2600" y2="   510" style = "stroke: Black;"/>
  <line x1="  2400" y1="   550" x2="  2600" y2="   550" style = "stroke: Black;"/>
  <line x1="  2400" y1="   590" x2="  2600" y2="   590" style = "stroke: Black;"/>
  <line x1="  2400" y1="   630" x2="  2600" y2="   630" style = "stroke: Black;"/>
  <line x1="  2400" y1="   670" x2="  2600" y2="   670" style = "stroke: Black;"/>
  <line x1="  2400" y1="   710" x2="  2600" y2="   710" style = "stroke: Black;"/>
  <line x1="  2400" y1="   750" x2="  2600" y2="   750" style = "stroke: Black;"/>
  <line x1="  2400" y1="   790" x2="  2600" y2="   790" style = "stroke: Black;"/>
  <line x1="   400" y1="    30" x2="   600" y2="    30" style = "stroke: Black;"/>
  <line x1="   800" y1="    30" x2="  1000" y2="    30" style = "stroke: Black;"/>
  <line x1="  1600" y1="    30" x2="  1800" y2="    30" style = "stroke: Black;"/>
  <line x1="  1200" y1="   910" x2="  1400" y2="   910" style = "stroke: Black;"/>
  <line x1="  2000" y1="   910" x2="  2200" y2="   910" style = "stroke: Black;"/>
  <line x1="  2400" y1="   910" x2="  2600" y2="   910" style = "stroke: Black;"/>
  <line x1="  3200" y1="  1750" x2="  3400" y2="  1750" style = "stroke: Black;"/>
  <line x1="  1200" y1="   870" x2="  1400" y2="   910" style = "stroke: Black;"/>
  <line x1="   400" y1="   870" x2="   600" y2="   870" style = "stroke: Black;"/>
  <line x1="  3200" y1="   430" x2="  3400" y2="   790" style = "stroke: Black;"/>
  <line x1="  3200" y1="    70" x2="  3400" y2="   790" style = "stroke: Black;"/>
  <line x1="  3200" y1="   630" x2="  3400" y2="   790" style = "stroke: Black;"/>
  <line x1="  3200" y1="   510" x2="  3400" y2="   790" style = "stroke: Black;"/>
  <line x1="  3200" y1="   550" x2="  3400" y2="   790" style = "stroke: Black;"/>
  <line x1="  3200" y1="   310" x2="  3400" y2="   790" style = "stroke: Black;"/>
  <line x1="  3200" y1="   750" x2="  3400" y2="   790" style = "stroke: Black;"/>
  <line x1="  3200" y1="   710" x2="  3400" y2="   790" style = "stroke: Black;"/>
  <line x1="  3200" y1="    30" x2="  3400" y2="   790" style = "stroke: Black;"/>
  <line x1="  3200" y1="   350" x2="  3400" y2="   790" style = "stroke: Black;"/>
  <line x1="  3200" y1="   470" x2="  3400" y2="   790" style = "stroke: Black;"/>
  <line x1="  3200" y1="   150" x2="  3400" y2="   790" style = "stroke: Black;"/>
  <line x1="  3200" y1="   110" x2="  3400" y2="   790" style = "stroke: Black;"/>
  <line x1="  3200" y1="   230" x2="  3400" y2="   790" style = "stroke: Black;"/>
  <line x1="  3200" y1="   390" x2="  3400" y2="   790" style = "stroke: Black;"/>
  <line x1="  3200" y1="   670" x2="  3400" y2="   790" style = "stroke: Black;"/>
  <line x1="  3200" y1="   190" x2="  3400" y2="   790" style = "stroke: Black;"/>
  <line x1="  3200" y1="   270" x2="  3400" y2="   790" style = "stroke: Black;"/>
  <line x1="  3200" y1="   790" x2="  3400" y2="   790" style = "stroke: Black;"/>
  <line x1="  3200" y1="   590" x2="  3400" y2="   790" style = "stroke: Black;"/>
  <line x1="   200" y1="    30" x2="   175" y2="    30" style = "stroke: Black;"/>
  <line x1="   175" y1="    30" x2="   175" y2="     0" style = "stroke: Black;"/>
  <line x1="   175" y1="     0" x2="  3625" y2="     0" style = "stroke: Black;"/>
  <line x1="  3625" y1="     0" x2="  3625" y2="   790" style = "stroke: Black;"/>
  <line x1="  3625" y1="   790" x2="  3600" y2="   790" style = "stroke: Black;"/>
  <line x1="   200" y1="   870" x2="   175" y2="   870" style = "stroke: Black;"/>
  <line x1="   175" y1="   870" x2="   175" y2="   840" style = "stroke: Black;"/>
  <line x1="   175" y1="   840" x2="  4025" y2="   840" style = "stroke: Black;"/>
  <line x1="  4025" y1="   840" x2="  4025" y2="  1750" style = "stroke: Black;"/>
  <line x1="  4025" y1="  1750" x2="  4000" y2="  1750" style = "stroke: Black;"/>
  <text x="   200" y="  1880">Unused Non-Parent Objects:</text>
  <text x="   220" y="  1900">SETPOINT MANAGER SCHEDULED 1</text>
  <text x="   220" y="  1920">SETPOINT MANAGER SCHEDULED 2</text>
  <text x="   220" y="  1940">SETPOINT MANAGER MIXED AIR 3</text>
  <text x="   220" y="  1960">SETPOINT MANAGER MIXED AIR 2</text>
  <text x="   220" y="  1980">SETPOINT MANAGER MIXED AIR 1</text>
  <text x="   220" y="  2000">CONTROLLER WATER COIL 1</text>
  <text x="   220" y="  2020">CONTROLLER OUTDOOR AIR 1</text>
  <text x="   200" y="  2060">
The following are not supported: objects related to controls, AirTerminal:SingleDuct:Uncontrolled, or ZoneHVAC:IdealLoadsAirSystem</text>
</g>
</svg>
